<?xml version="1.0" encoding="utf-8"?>
<!-- Generator: Adobe Illustrator 27.0.0, SVG Export Plug-In . SVG Version: 6.00 Build 0)  -->
<svg version="1.1" id="Capa_1" xmlns="http://www.w3.org/2000/svg" xmlns:xlink="http://www.w3.org/1999/xlink" x="0px" y="0px"
	 viewBox="0 0 512 512" style="enable-background:new 0 0 512 512;" xml:space="preserve">
<style type="text/css">
	.st0{fill:#435961;}
	.st1{fill:#546F7A;}
	.st2{fill:#FBD2A4;}
	.st3{fill:#FFE4C2;}
	.st4{fill:#FEF5E1;}
	.st5{fill:#FCBD85;}
	.st6{fill:#569FD7;}
	.st7{fill:#FFCB24;}
	.st8{fill:#F7B818;}
	.st9{fill:#448AC9;}
	.st10{fill:#7AC476;}
	.st11{fill:none;stroke:#000000;stroke-width:12;stroke-linecap:round;stroke-linejoin:round;stroke-miterlimit:10;}
	.st12{fill:#FFFFFF;}
</style>
<g>
	<g>
		<path class="st0" d="M191.4,129.9h30.3c15.6,0,28.2-12.6,28.2-28.2V42H231c-21.9,0-39.6,17.7-39.6,39.6V129.9z"/>
		<path class="st1" d="M208.5,127.6h13.1c15.6,0,28.2-12.6,28.2-28.2V42h-1.8c-21.9,0-39.6,17.7-39.6,39.6V127.6z"/>
		<rect x="186.3" y="133.4" class="st2" width="27.8" height="52.3"/>
		<path class="st3" d="M256,116.3l-35.4,20.9V203c0,36,29.2,65.2,65.2,65.2h18.3c36,0,65.2-29.2,65.2-65.2v-69.6H278L256,116.3z"/>
		<path class="st4" d="M267.6,116.3l-31.7,20.9V203c0,36,26.2,65.2,58.6,65.2h16.4c32.3,0,58.6-29.2,58.6-65.2v-69.6h-82.1
			L267.6,116.3z"/>
		<rect x="372" y="136.7" class="st2" width="26.9" height="51.1"/>
		<polygon class="st2" points="332.1,271.3 248.7,269.4 250,300.4 292.6,329.9 333.7,299.6 		"/>
		<polygon class="st5" points="268.3,276.3 268.3,300.4 297.5,322.6 291.2,328.1 251,299.6 251,270.3 		"/>
		<polygon class="st6" points="462.4,503.1 462.4,360.8 445,335.3 337.8,303.3 289.4,333.3 247.2,303.3 165.5,331.6 108.3,406.8 
			100.5,444.9 57.6,445.3 62.7,495.6 93.4,506.9 168.3,430.3 168.9,503.1 		"/>
		<polygon class="st7" points="170,413.9 170,472.8 399.7,472.8 399.7,410.7 		"/>
		<polygon class="st8" points="188.2,413.7 188.2,470.4 170,470.4 170,413.9 		"/>
		<polygon class="st9" points="188.2,476.2 188.2,499.2 172,499.2 172,477.4 		"/>
		<path class="st9" d="M79.2,448.5v25.9c0,0,0.3,22,10.7,22l-2.8,8.3c0,0-14.3,2.4-18.2-3.9c-3.9-6.3-9.5-16.3-9.5-22.1
			c0-5.8-1.2-25.4-0.5-28.6s4.4-7,7-6.8C68.5,443.4,79.2,448.5,79.2,448.5z"/>
		<path class="st9" d="M190,328.8l-64,81.9v16c0,8.3-6.7,15-15,15h-5.9l6-32.6l58.6-76.8L190,328.8z"/>
		<polygon class="st9" points="343.4,309.4 311.9,334.4 307.7,329.9 338.5,306.7 		"/>
		<polygon class="st10" points="136.8,136.7 136.8,192.3 164.9,221.8 136.8,230.4 132.2,252.6 48.4,256.3 44.9,136.7 92.9,129.9 		
			"/>
		<path d="M324.5,176.8L324.5,176.8c-4,0-7.3-3.3-7.3-7.3v-9.7c0-4,3.3-7.3,7.3-7.3h0c4,0,7.3,3.3,7.3,7.3v9.7
			C331.8,173.6,328.6,176.8,324.5,176.8z"/>
		<path d="M259.3,176.8L259.3,176.8c-4,0-7.3-3.3-7.3-7.3v-9.7c0-4,3.3-7.3,7.3-7.3l0,0c4,0,7.3,3.3,7.3,7.3v9.7
			C266.6,173.6,263.4,176.8,259.3,176.8z"/>
		<path class="st11" d="M273.4,207.8c0,0-2,22.3,18.6,22.3s19.9-22.3,19.9-22.3"/>
		<g>
			<rect x="44.1" y="351.7" class="st3" width="60.5" height="84.3"/>
			<rect x="63" y="351.7" class="st4" width="41.6" height="84.3"/>
			<rect x="71.2" y="301.4" class="st5" width="23.2" height="44.9"/>
			<path class="st2" d="M87.9,307h6.5v39.3H80.9v-32.3C80.9,310.2,84,307,87.9,307z"/>
		</g>
		<path class="st0" d="M395.7,129.9H286.4c-16.8,0-30.4-13.6-30.4-30.4V13.9h81.3c32.2,0,58.3,26.1,58.3,58.3V129.9z"/>
		<path class="st1" d="M395.7,129.9h-96.8c-14.1,0-25.5-11.4-25.5-25.5V39.5c0-14.1,11.4-25.5,25.5-25.5h38.4
			c32.2,0,58.3,26.1,58.3,58.3V129.9z"/>
	</g>
	<g>
		<g>
			<path class="st12" d="M406,129.4v-19.2c0-3.9-3.1-7-7-7c-3.9,0-7,3.1-7,7v16.5H285.1c-11.2,0-20.3-9.1-20.3-20.3v-71
				c0-11.6,9.5-21.1,21.1-21.1h50.9c30.4,0,55.2,24.8,55.2,55.2v13.9c0,3.9,3.1,7,7,7c3.9,0,7-3.1,7-7V69.5
				c0-38.1-31-69.2-69.2-69.2h-50.9c-18.6,0-33.9,14.6-35,32.9H233c-26.1,0-47.3,21.2-47.3,47.3v47.7c-5.6,2.6-9.5,8.3-9.5,14.9
				v23.7c0,16,13,29,29,29h7.8v5.1c0,24.4,11.2,46.2,28.8,60.6c4.3,3.5,9,6.6,14,9.1c10.6,5.4,22.6,8.4,35.2,8.4h7.4
				c11.9,0,23.1-2.7,33.2-7.4c5-2.3,9.7-5.2,14-8.5c18.8-14.3,30.9-36.8,30.9-62.2v-5.1h7.8c16,0,29-13,29-29v-23.7
				C413.4,137.4,410.4,132.3,406,129.4z M213,181.8h-7.8c-8.2,0-15-6.7-15-15v-23.7c0-1.3,1.1-2.4,2.5-2.4H213V181.8z M199.7,126.7
				V80.6c0-18.4,15-33.3,33.3-33.3h17.8v48.7c0,17-13.8,30.8-30.8,30.8H199.7z M362.6,201c0,35.3-28.8,64.1-64.1,64.1h-7.4
				c-35.3,0-64.1-28.8-64.1-64.1v-60.8c11.5-1.8,21.5-8,28.3-16.7c5.9,10.3,17.1,17.3,29.8,17.3h77.5V201z M399.4,166.9
				c0,8.2-6.7,15-15,15h-7.8v-41.1h20.3c1.3,0,2.5,1.1,2.5,2.4V166.9z"/>
		</g>
		<g>
			<path class="st12" d="M474.1,373.5v23c0,3.9-3.1,7-7,7c-3.9,0-7-3.1-7-7v-23c0-16-10.2-30-25.4-35l-94.6-30.8l-40.2,31.9
				c-1.3,1-2.8,1.5-4.3,1.5c-1.5,0-3.1-0.5-4.4-1.5l-40.6-32.3h0l-74.6,28.6l-58.1,75v-22.9l48.2-62.2c0.8-1,1.8-1.8,3-2.2
				l72.6-27.9v-34.1c4.3,3.5,9,6.6,14,9.1v22.8l0.2,0.2c0,0,0,0,0,0c0,0,0,0,0,0c0.1,0,0.1,0.1,0.2,0.2l39.3,31.3l36.2-28.7v-24.9
				c5-2.3,9.7-5.2,14-8.5v31.7l93.3,30.4C460,332.1,474.1,351.5,474.1,373.5z"/>
		</g>
		<g>
			<path class="st12" d="M467.1,416.8c-3.9,0-7,3.1-7,7v72.7h-48.6v-99.9c0-3.9-3.1-7-7-7s-7,3.1-7,7v8.7H177.9v-8.7
				c0-3.9-3.1-7-7-7c-3.9,0-7,3.1-7,7v28.8L112.1,489c-7.7,9.5-18.6,10-26.2,7.3c-7.6-2.7-15.7-9.9-15.7-22.2v-24.2h-5.5
				c-3,0-5.8-0.5-8.5-1.4v25.6c0,16.1,9.8,30,25,35.4c4.2,1.5,8.5,2.2,12.8,2.2c11,0,21.6-4.9,28.9-13.9l40.9-50.2v55.9
				c0,3.9,3.1,7,7,7h296.2c3.9,0,7-3.1,7-7v-79.7C474.1,419.9,470.9,416.8,467.1,416.8z M397.4,466.5H263.1c-3.9,0-7,3.1-7,7
				s3.1,7,7,7h134.3v16H177.9v-16h59.7c3.9,0,7-3.1,7-7s-3.1-7-7-7h-59.7v-47.3h219.5V466.5z"/>
		</g>
		<g>
			<path class="st12" d="M100.7,431.6c-1.3,1.5-3.1,2.7-5,3.5L100.7,431.6z"/>
			<path class="st12" d="M108.8,443.2v18.8c0,3.9-3.1,7-7,7c-3.9,0-7-3.1-7-7v-12.3C100.1,448.9,104.9,446.6,108.8,443.2z"/>
		</g>
		<g>
			<path class="st12" d="M108.8,345.5v-27.9c0-12.7-10.3-23-23-23c-12.7,0-23,10.3-23,23v21.3c-13.9,1.1-24.9,12.7-24.9,26.8V423
				c0,11.9,7.7,22,18.4,25.5c2.7,0.9,5.6,1.4,8.5,1.4h26.2c1.3,0,2.5-0.1,3.7-0.3c5.3-0.7,10.1-3,14-6.4c5.6-4.9,9.2-12.2,9.2-20.2
				v-57.2C118,357.7,114.4,350.5,108.8,345.5z M76.8,317.6c0-5,4-9,9-9s9,4,9,9v21.5c-1.2-0.2-2.5-0.3-3.7-0.3H76.8V317.6z
				 M104,374.3H73.2c-3.9,0-7,3.1-7,7c0,3.9,3.1,7,7,7H104v17H73.2c-3.9,0-7,3.1-7,7c0,3.9,3.1,7,7,7H104v3.7c0,3.3-1.2,6.3-3.3,8.6
				c-1.3,1.5-3.1,2.7-5,3.5c-1.4,0.6-3,0.9-4.6,0.9H64.9c-1.4,0-2.7-0.2-3.9-0.6c-5.2-1.7-9-6.5-9-12.3v-57.2
				c0-7,5.6-12.8,12.6-12.9c0.1,0,0.2,0,0.3,0h26.2c1.3,0,2.6,0.2,3.8,0.6c3.1,1,5.7,3.1,7.3,5.9c1.1,1.9,1.8,4.1,1.8,6.5V374.3z"/>
		</g>
		<g>
			<path class="st12" d="M176.9,219.4l-28.7-28.7v-47.1c0-10.9-8.9-19.8-19.8-19.8H59.1c-10.9,0-19.8,8.9-19.8,19.8v99.9
				c0,10.9,8.9,19.8,19.8,19.8H127c10.9,0,19.8-8.9,19.8-19.8v-12.2h25.2c2.8,0,5.4-1.7,6.5-4.3
				C179.5,224.4,178.9,221.4,176.9,219.4z M139.7,217.3c-3.9,0-7,3.1-7,7v19.2c0,3.2-2.6,5.8-5.8,5.8H59.1c-3.2,0-5.8-2.6-5.8-5.8
				v-99.9c0-3.2,2.6-5.8,5.8-5.8h69.4c3.2,0,5.8,2.6,5.8,5.8v50c0,1.8,0.7,3.6,2,5l18.8,18.8H139.7z"/>
		</g>
		<g>
			<path class="st12" d="M86,215.3c-1.8,0-3.6-0.7-5-2.1l-19.1-19.5c-2.7-2.8-2.7-7.2,0.1-9.9s7.2-2.7,9.9,0.1l14.2,14.5l30.4-29.7
				c2.8-2.7,7.2-2.6,9.9,0.1c2.7,2.8,2.6,7.2-0.1,9.9l-35.4,34.6C89.5,214.7,87.7,215.3,86,215.3z"/>
		</g>
	</g>
</g>
</svg>
