<?xml version="1.0" encoding="utf-8"?>
<!-- Generator: Adobe Illustrator 23.0.1, SVG Export Plug-In . SVG Version: 6.00 Build 0)  -->
<svg version="1.1" id="Capa_1" xmlns="http://www.w3.org/2000/svg" xmlns:xlink="http://www.w3.org/1999/xlink" x="0px" y="0px"
	 viewBox="0 0 512 512" style="enable-background:new 0 0 512 512;" xml:space="preserve">
<style type="text/css">
	.st0{fill:#FFFFFF;}
	.st1{fill:#265787;}
	.st2{fill:#EA7600;}
</style>
<g>
	<path class="st0" d="M203.7,266.6c1.8-33.7,17.2-63.3,40.5-84.4c22.8-20.6,53.6-33.3,87.1-33.3s64.2,12.6,87.1,33.3
		c23.3,21,38.7,50.7,40.5,84.3c1.8,34.6-11.3,66.7-34.1,90.5c-23.3,24.2-56.4,39.4-93.5,39.4s-70.3-15.2-93.5-39.4
		C214.8,333.3,201.9,301.1,203.7,266.6z"/>
	<path class="st1" d="M265.8,269.6c0.9-17.3,8.8-32.5,20.8-43.3c26-22.8,63.4-22.8,89.4,0c11.9,10.8,19.9,26,20.8,43.3
		c0.9,17.8-5.8,34.2-17.5,46.5c-11.9,12.4-28.9,20.2-48,20.2s-36.1-7.8-48-20.2C271.5,303.8,264.9,287.3,265.8,269.6z"/>
	<path class="st2" d="M161.5,304.5c0.1,6.8,2.1,19.9,5.2,30.2c6.5,22.1,17.5,42.4,32.2,59.5c15.7,18.5,34.9,33.2,56.3,43.2
		c47.2,22,100.8,21.9,147.9-0.3c21.4-10.1,40.6-24.9,56.3-43.4c14.6-17.2,25.6-37.5,32.2-59.6c3.2-10.8,5.2-22,6.1-33.3
		c0.8-11,0.5-22.1-1-33.1c-2.8-21.3-9.8-41.7-20.5-60c-9.9-17-22.6-31.9-37.4-44.1l0,0L287.1,39.4c-0.1-0.1-0.3-0.2-0.4-0.3
		c-9.9-8.1-26.7-8.1-37.6,0c-10.9,8.1-12.3,21.9-2.5,30.5l0,0l63.2,54.9l-192.6,0.2H117c-16,0.1-31.2,11.2-34.3,25.3
		c-3.1,14.4,7.7,26.3,24.3,26.3v0.1l97.6-0.2L30.4,319l-0.7,0.5c-16.4,13.5-21.7,35.8-11.4,50c10.5,14.4,32.8,14.4,49.5,0.1
		l95.1-83.1C162.1,292.5,161.7,298.5,161.5,304.5z M405.8,342.1c-19.6,21.3-47,33.4-76.7,33.5c-29.7,0.1-57.1-11.9-76.7-33.2
		c-9.3-9.9-16.4-21.9-20.9-35c-4.3-12.5-5.9-25.9-4.9-39.1c1-12.9,4.6-25.5,10.5-36.9c5.9-11.4,13.8-21.4,23.3-29.6
		c19-16.6,43.3-25.5,68.6-25.6c25.4,0,49.6,8.9,68.7,25.4c9.5,8.1,17.4,18.2,23.3,29.5c5.9,11.3,9.5,23.9,10.5,36.8
		c1.1,13.3-0.6,26.6-4.9,39.1C422.2,320.1,415,332.1,405.8,342.1z"/>
</g>
</svg>
