<?xml version="1.0" encoding="utf-8"?>
<!-- Generator: Adobe Illustrator 23.0.1, SVG Export Plug-In . SVG Version: 6.00 Build 0)  -->
<svg version="1.1" id="Layer_1" xmlns="http://www.w3.org/2000/svg" xmlns:xlink="http://www.w3.org/1999/xlink" x="0px" y="0px"
	 viewBox="0 0 445 445" style="enable-background:new 0 0 445 445;" xml:space="preserve">
<style type="text/css">
	.st0{fill:#330000;}
	.st1{fill:#FF9A00;}
</style>
<path class="st0" d="M82.5,12.4h279c42.3,0,76.5,34.2,76.5,76.5v268.2c0,42.3-34.2,76.5-76.5,76.5h-279C40.2,433.6,6,399.4,6,357.1
	V88.9C6,46.6,40.2,12.4,82.5,12.4z"/>
<path class="st1" d="M214.8,264.4h-67l-13.7,42.3c-0.4,1.6-1.8,2.7-3.4,2.5H96.9c-2,0-2.5-1.1-2-3.2l58-166.9
	c0.5-1.8,1.1-3.8,1.8-5.9c0.7-3.8,1.1-7.7,1.1-11.7c-0.2-0.9,0.5-1.8,1.4-2h46.6c1.4,0,2.2,0.5,2.3,1.4l65.7,185.4
	c0.5,2,0,2.9-1.8,2.9h-37.6c-1.3,0.2-2.5-0.7-2.9-2L214.8,264.4z M158.3,227.9H204c-1.1-3.8-2.5-8.3-4.1-13
	c-1.6-4.9-3.2-10.1-4.9-15.5c-1.8-5.6-3.4-11-5.2-16.6c-1.8-5.6-3.4-10.8-4.9-16c-1.4-5-2.7-9.7-4-14h-0.4
	c-1.6,7.7-3.6,15.5-6.1,23.2c-2.7,8.6-5.4,17.6-8.3,26.6C163.7,211.8,161,220.3,158.3,227.9z M312,151c-5.9,0.2-11.7-2.2-16-6.3
	c-4.1-4.5-6.3-10.4-6.1-16.6c-0.2-6.1,2.2-11.9,6.5-16s10.1-6.3,16-6.3c7,0,12.4,2.2,16.4,6.3c4,4.3,6.1,10.1,5.9,16
	c0.2,6.1-2,12.1-6.3,16.6C324.2,149,318.1,151.4,312,151L312,151z M291.8,307.2V168.6c0-1.8,0.7-2.5,2.3-2.5h35.6
	c1.6,0,2.3,0.9,2.3,2.5v138.6c0,2-0.7,2.9-2.3,2.9h-35.3C292.7,310.1,291.8,309,291.8,307.2z"/>
</svg>
