<?xml version="1.0" encoding="utf-8"?>
<!-- Generator: Adobe Illustrator 23.0.1, SVG Export Plug-In . SVG Version: 6.00 Build 0)  -->
<svg version="1.1" id="Layer_1" xmlns="http://www.w3.org/2000/svg" xmlns:xlink="http://www.w3.org/1999/xlink" x="0px" y="0px"
	 viewBox="0 0 447.7 447.7" style="enable-background:new 0 0 447.7 447.7;" xml:space="preserve">
<style type="text/css">
	.st0{fill:#49021F;}
	.st1{fill:#FF3366;}
</style>
<path class="st0" d="M81.5,11.3h284.6c43.1,0,78,34.9,78,78V363c0,43.1-34.9,78-78,78H81.5c-43.1,0-78-34.9-78-78V89.4
	C3.5,46.2,38.4,11.3,81.5,11.3z"/>
<g id="vlpa_1_">
	<g id="vlpb_1_">
		<path class="st1" d="M163.6,123.7v189.1c0,2-0.9,2.9-2.6,2.9h-36c-1.7,0-2.4-0.9-2.4-2.9V123.7c0-1.7,0.9-2.4,2.6-2.4H161
			c1.1-0.2,2.2,0.6,2.4,1.8C163.6,123.3,163.6,123.5,163.6,123.7z"/>
		<path class="st1" d="M269.7,318c-13.6,0.2-27.2-2.6-39.5-8.3c-11.6-5.3-21.1-14.1-27.7-25c-6.8-11.2-10.1-25.2-10.1-41.9
			c-0.2-13.6,3.3-27,10.1-38.7c7-11.9,17.1-21.9,29.2-28.5c12.9-7.2,28.3-10.6,46.5-10.6c0.9,0,2.2,0,3.9,0.2
			c1.7,0.2,3.5,0.2,5.7,0.4v-58c0-1.3,0.6-2,1.8-2h37.3c0.9-0.2,1.7,0.6,1.8,1.3v0.4V282c0,3.3,0.2,7,0.4,11
			c0.4,3.9,0.6,7.5,0.7,10.6c0,1.3-0.6,2.4-1.8,2.9c-9.5,4-19.6,7-29.9,8.8C288.8,317.1,279.3,318,269.7,318L269.7,318z
			 M287.7,281.3v-80.8c-1.7-0.4-3.3-0.7-5-0.9c-2-0.2-4-0.4-6.1-0.4c-7.2,0-14.3,1.5-20.7,4.8c-6.2,3.1-11.6,7.7-15.6,13.6
			s-6.1,13.8-6.1,23.3c-0.2,6.4,0.9,12.9,3.1,18.9c1.8,5,4.6,9.4,8.3,13c3.5,3.3,7.7,5.9,12.5,7.3c5,1.7,10.1,2.4,15.2,2.4
			c2.8,0,5.3-0.2,7.7-0.4C283.5,282.4,285.7,282,287.7,281.3L287.7,281.3z"/>
	</g>
</g>
</svg>
