<?xml version="1.0" encoding="utf-8"?>
<!-- Generator: Adobe Illustrator 23.0.1, SVG Export Plug-In . SVG Version: 6.00 Build 0)  -->
<svg version="1.1" id="Layer_1" xmlns="http://www.w3.org/2000/svg" xmlns:xlink="http://www.w3.org/1999/xlink" x="0px" y="0px"
	 viewBox="0 0 512 512" style="enable-background:new 0 0 512 512;" xml:space="preserve">
<style type="text/css">
	.st0{fill:#001E36;}
	.st1{fill:#31A8FF;}
</style>
<g id="Layer_2_1_">
	<g id="Surfaces">
		<g id="Photo_Surface">
			<g id="Outline_no_shadow">
				<path class="st0" d="M91.9,8.3h328.2c49.8,0,90,40.2,90,90v315.5c0,49.8-40.2,90-90,90H91.9c-49.8,0-90-40.2-90-90V98.3
					C1.9,48.5,42.2,8.3,91.9,8.3z"/>
			</g>
		</g>
	</g>
	<g id="Outlined_Mnemonics_Logos">
		<g id="Ps">
			<path class="st1" d="M116.3,355.7V137.9c0-1.5,0.6-2.3,2.1-2.3c3.6,0,7,0,11.9-0.2c5.1-0.2,10.4-0.2,16.1-0.4
				c5.7-0.2,11.9-0.2,18.4-0.4c6.6-0.2,12.9-0.2,19.3-0.2c17.4,0,31.8,2.1,43.6,6.6c10.6,3.6,20.3,9.5,28.4,17.4
				c6.8,6.8,12.1,15,15.5,24.1c3.2,8.9,4.9,18,4.9,27.5c0,18.2-4.2,33.2-12.7,45.1c-8.5,11.9-20.3,20.7-34.1,25.8
				c-14.4,5.3-30.3,7.2-47.6,7.2c-5.1,0-8.5,0-10.6-0.2c-2.1-0.2-5.1-0.2-9.1-0.2v68c0.2,1.5-0.8,2.8-2.3,3c-0.2,0-0.4,0-0.8,0
				h-40.2C117.1,358.5,116.3,357.6,116.3,355.7z M162.4,176.4v71.1c3,0.2,5.7,0.4,8.3,0.4h11.2c8.3,0,16.5-1.3,24.3-3.8
				c6.8-1.9,12.7-5.9,17.4-11.2c4.4-5.3,6.6-12.5,6.6-21.8c0.2-6.6-1.5-13.1-4.9-18.8c-3.6-5.5-8.7-9.7-14.8-12.1
				c-7.8-3.2-16.3-4.4-25-4.2c-5.5,0-10.4,0-14.4,0.2C166.9,176,163.9,176.2,162.4,176.4L162.4,176.4z"/>
			<path class="st1" d="M408.4,234.6c-6.4-3.4-13.1-5.7-20.3-7.2c-7.8-1.7-15.7-2.8-23.7-2.8c-4.2-0.2-8.7,0.4-12.7,1.5
				c-2.8,0.6-5.1,2.1-6.6,4.2c-1.1,1.7-1.7,3.8-1.7,5.7c0,1.9,0.8,3.8,2.1,5.5c1.9,2.3,4.4,4.2,7.2,5.7c4.9,2.5,10,4.9,15,7
				c11.4,3.8,22.4,9.1,32.6,15.5c7,4.4,12.7,10.4,16.7,17.6c3.4,6.8,5.1,14.2,4.9,21.8c0.2,10-2.8,19.9-8.3,28.2
				c-5.9,8.5-14.2,15-23.7,18.8c-10.4,4.4-23.1,6.8-38.3,6.8c-9.7,0-19.3-0.8-28.8-2.8c-7.4-1.3-14.8-3.6-21.6-6.8
				c-1.5-0.8-2.5-2.3-2.3-4v-36.8c0-0.6,0.2-1.5,0.8-1.9c0.6-0.4,1.3-0.2,1.9,0.2c8.3,4.9,16.9,8.3,26.3,10.4c8,2.1,16.5,3.2,25,3.2
				c8,0,13.8-1.1,17.6-3c3.4-1.5,5.7-5.1,5.7-8.9c0-3-1.7-5.7-5.1-8.5c-3.4-2.8-10.4-5.9-20.7-10c-10.8-3.8-20.7-8.9-30.1-15.2
				c-6.6-4.7-12.1-10.8-16.1-18c-3.4-6.8-5.1-14.2-4.9-21.6c0-9.1,2.5-17.8,7.2-25.6c5.3-8.5,13.1-15.2,22.2-19.5
				c10-5.1,22.4-7.4,37.5-7.4c8.7,0,17.6,0.6,26.3,1.9c6.4,0.8,12.5,2.5,18.2,4.9c0.8,0.2,1.7,1.1,2.1,1.9c0.2,0.8,0.4,1.7,0.4,2.5
				v34.5c0,0.8-0.4,1.7-1.1,2.1C410.4,235,409.3,235,408.4,234.6z"/>
		</g>
	</g>
</g>
</svg>
