<?xml version="1.0" encoding="utf-8"?>
<!-- Generator: Adobe Illustrator 23.0.1, SVG Export Plug-In . SVG Version: 6.00 Build 0)  -->
<svg version="1.1" id="Layer_1" xmlns="http://www.w3.org/2000/svg" xmlns:xlink="http://www.w3.org/1999/xlink" x="0px" y="0px"
	 viewBox="0 0 447.7 447.7" style="enable-background:new 0 0 447.7 447.7;" xml:space="preserve">
<style type="text/css">
	.st0{fill:#00005B;}
	.st1{fill:#9999FF;}
</style>
<g id="vlpa">
	<g id="vlpb">
		<g id="vlpc">
			<g id="vlpd">
				<path class="st0" d="M81.5,9h284.6c43.1,0,78,34.9,78,78v273.6c0,43.1-34.9,78-78,78H81.5c-43.1,0-78-34.9-78-78V87
					C3.5,43.9,38.4,9,81.5,9z"/>
			</g>
		</g>
	</g>
	<g id="vlpe">
		<g id="vlpf">
			<path class="st1" d="M108.2,310.1V121c0-1.3,0.6-2,1.8-2c3.1,0,6.1,0,10.3-0.2c4.4-0.2,9-0.2,14-0.4s10.3-0.2,16-0.4
				c5.7-0.2,11.2-0.2,16.7-0.2c15.1,0,27.5,1.8,37.8,5.7c9.2,3.1,17.6,8.3,24.6,15.1c5.9,5.9,10.5,13,13.4,20.9
				c2.8,7.7,4.2,15.6,4.2,23.9c0,15.8-3.7,28.8-11,39.1c-7.3,10.3-17.6,18-29.6,22.4c-12.5,4.6-26.3,6.2-41.3,6.2
				c-4.4,0-7.3,0-9.2-0.2c-1.8-0.2-4.4-0.2-7.9-0.2v58.9c0.2,1.3-0.7,2.4-2,2.6h-0.7h-34.9c-1.5,0-2.2-0.7-2.2-2.4L108.2,310.1z
				 M148.2,154.6v61.7c2.6,0.2,5,0.4,7.2,0.4h9.7c7.2,0,14.3-1.1,21.1-3.3c5.9-1.7,11-5.1,15.1-9.7c3.9-4.6,5.7-10.8,5.7-18.9
				c0.2-5.7-1.3-11.4-4.2-16.3c-3.1-4.8-7.5-8.4-12.9-10.5c-6.8-2.8-14.1-3.9-21.7-3.7c-4.8,0-9,0-12.5,0.2
				C152,154.2,149.5,154.4,148.2,154.6L148.2,154.6z"/>
			<path class="st1" d="M273.4,165.4h32.1c1.8,0,3.3,1.3,3.9,2.9c0.6,1.5,0.9,2.9,1.1,4.6c0.4,1.8,0.7,3.9,0.9,5.7
				c0.2,2,0.4,4.2,0.4,6.6c5.5-6.4,12.1-11.8,19.6-15.8c8.4-4.8,18.2-7.2,27.9-7.2c1.3-0.2,2.4,0.7,2.6,2v0.7v35.8
				c0,1.5-0.9,2-2.9,2c-6.6-0.2-13.4,0.4-19.8,1.8c-5.3,1.1-10.5,2.8-15.4,5c-3.5,1.7-6.8,3.9-9.4,6.8v93.6c0,1.8-0.7,2.6-2.4,2.6
				h-36.2c-1.5,0.2-2.8-0.7-2.9-2.2v-0.7V208c0-4.4,0-9-0.2-13.8s-0.2-9.5-0.4-14.3c0-4.2-0.4-8.3-0.7-12.5c-0.2-0.9,0.4-1.8,1.3-2
				C272.9,165.3,273.2,165.3,273.4,165.4L273.4,165.4z"/>
		</g>
	</g>
</g>
</svg>
