<?xml version="1.0" encoding="utf-8"?>
<!-- Generator: Adobe Illustrator 27.0.0, SVG Export Plug-In . SVG Version: 6.00 Build 0)  -->
<svg version="1.1" id="Layer_1" xmlns="http://www.w3.org/2000/svg" xmlns:xlink="http://www.w3.org/1999/xlink" x="0px" y="0px"
	 viewBox="0 0 150 150" style="enable-background:new 0 0 150 150;" xml:space="preserve">
<style type="text/css">
	.st0{fill:#E0A80D;}
</style>
<g>
	<g>
		<path class="st0" d="M0,77.64c1.1-3.21,3.11-5.38,6.68-5.65c0.67-0.05,1.45-0.12,2.02,0.15c1.38,0.65,2.17,0.02,3.09-0.91
			c6.73-6.79,13.51-13.53,20.28-20.29c0.34-0.34,0.67-0.7,0.99-1.03c-2.81-4.7-3.01-10.73,1.81-15.46c3.27-3.2,9.01-4.9,14.95-1.37
			c0.29-0.25,0.63-0.52,0.92-0.81c7-7,14.01-14,20.97-21.04c0.38-0.39,0.71-1.19,0.59-1.67c-1.15-4.29,0.65-7.84,4.82-9.3
			C77.3,0.19,77.46,0.09,77.64,0c0.98,0,1.95,0,2.93,0c0.13,0.07,0.24,0.17,0.38,0.22c4.17,1.47,6.2,5.16,5.01,9.04
			c-1.28,4.17-5.86,5.98-9.25,4.71c-0.4-0.15-1.19,0.2-1.56,0.56c-3.84,3.75-7.63,7.55-11.42,11.34c-0.24,0.24-0.45,0.53-0.73,0.87
			c24.51-9.42,47.39-6.66,68.99,8.41c1.11-1.18,2.22-2.42,3.39-3.59c1.43-1.42,2.58-1.41,4.03,0.02c2.5,2.47,4.99,4.95,7.45,7.45
			c1.09,1.11,2.1,2.29,3.15,3.44c0,0.49,0,0.98,0,1.46c-3.66,3.71-7.3,7.44-11,11.12c-0.98,0.98-2.28,0.95-3.28-0.03
			c-3.46-3.38-6.89-6.78-10.29-10.21c-1.01-1.03-0.94-2.32,0.07-3.4c0.89-0.96,1.83-1.88,2.74-2.82
			c-20.88-16.07-52.19-16.95-74.39-1.17c2.28,5.45,1.81,10.55-2.74,14.65c-4.04,3.66-8.75,3.9-13.64,1.73
			c-14.68,19.76-16.25,51.64,1.24,74.65c0.87-0.97,1.68-1.96,2.58-2.84c1.23-1.2,2.52-1.2,3.73,0.01c3.32,3.31,6.62,6.63,9.9,9.99
			c1.06,1.09,1.14,2.37,0.13,3.39c-3.67,3.7-7.41,7.34-11.12,11c-0.49,0-0.98,0-1.46,0c-0.43-0.32-0.9-0.6-1.27-0.97
			c-3.26-3.23-6.51-6.47-9.73-9.73c-1.34-1.36-1.32-2.53,0.08-3.92c1.21-1.19,2.49-2.31,3.62-3.36
			C20.08,110.29,17.34,87.42,26.63,63c-4.05,3.92-7.97,7.93-11.95,11.88c-0.76,0.76-0.91,1.37-0.62,2.4c1.06,3.68-0.98,7.4-4.6,8.64
			C5.92,87.13,2.1,85.44,0.57,82C0.4,81.61,0.19,81.24,0,80.86C0,79.79,0,78.71,0,77.64z M43.22,50.48c4.1-0.03,7.29-3.3,7.24-7.42
			c-0.05-4.01-3.31-7.26-7.3-7.26c-4.01,0-7.38,3.38-7.36,7.39C35.82,47.24,39.15,50.51,43.22,50.48z M36.57,137.29
			c2.21,2.22,4.46,4.49,6.61,6.65c2.19-2.18,4.46-4.44,6.67-6.64c-2.2-2.2-4.46-4.46-6.64-6.65
			C41.03,132.84,38.76,135.11,36.57,137.29z M137.33,49.71c2.22-2.22,4.48-4.47,6.62-6.61c-2.15-2.15-4.41-4.41-6.54-6.53
			c-2.17,2.16-4.43,4.41-6.6,6.58C132.94,45.28,135.16,47.52,137.33,49.71z M81.59,7.25c0.04-1.37-1.07-2.54-2.44-2.56
			c-1.32-0.02-2.42,1.01-2.49,2.35c-0.08,1.4,0.97,2.57,2.35,2.62C80.39,9.72,81.55,8.63,81.59,7.25z M7.24,76.66
			c-1.38-0.03-2.33,0.88-2.34,2.24c-0.02,1.41,1.09,2.54,2.48,2.52c1.32-0.01,2.3-1.02,2.29-2.34C9.66,77.74,8.6,76.69,7.24,76.66z"
			/>
		<path class="st0" d="M110.45,150c-0.57-0.7-1.29-1.33-1.7-2.12c-2.27-4.42-4.43-8.9-6.74-13.31c-0.38-0.73-1.16-1.44-1.93-1.74
			c-7.71-3.03-15.45-5.99-23.19-8.92c-1.28-0.48-2.08-1.22-2.6-2.52c-7.84-19.69-15.71-39.38-23.61-59.04
			c-0.63-1.56-0.49-2.74,0.77-3.93c2.41-2.28,4.74-4.65,7.05-7.03c1.05-1.09,2.12-1.34,3.54-0.77c19.86,7.96,39.72,15.89,59.6,23.8
			c1.22,0.48,1.82,1.34,2.25,2.49c2.95,7.74,5.9,15.48,8.93,23.19c0.3,0.76,1.01,1.55,1.74,1.93c4.41,2.3,8.88,4.46,13.3,6.74
			c0.79,0.41,1.42,1.12,2.12,1.7c0,0.49,0,0.98,0,1.46c-0.47,0.56-0.89,1.16-1.4,1.68c-11.66,11.68-23.33,23.35-35.01,35.01
			c-0.51,0.51-1.11,0.94-1.67,1.4C111.43,150,110.94,150,110.45,150z M56.45,60.13c-0.74,0.5-1.22,1.02-0.72,2.27
			c7.51,18.62,14.96,37.26,22.4,55.9c0.36,0.9,0.87,1.39,1.76,1.73c7.15,2.71,14.3,5.45,21.42,8.25c0.99,0.39,1.55,0.19,2.26-0.53
			c8.05-8.1,16.12-16.18,24.23-24.23c0.75-0.74,0.83-1.33,0.46-2.28c-2.75-7.03-5.47-14.08-8.13-21.15
			c-0.42-1.11-1.06-1.7-2.14-2.13c-18.47-7.35-36.94-14.72-55.38-22.15c-1.26-0.51-1.99-0.35-2.41,0.55
			c10.12,10.12,20.15,20.15,30.2,30.21c7.33-4.58,15.09-1.66,18.7,3.23c4.07,5.51,3.6,13.08-1.19,17.96
			c-4.77,4.86-12.4,5.46-17.94,1.49c-4.72-3.38-8.2-11.03-3.36-18.97C76.58,80.24,66.55,70.22,56.45,60.13z M106.08,132.11
			c1.9,3.78,3.82,7.62,5.6,11.17c10.58-10.58,21.07-21.07,31.58-31.57c-3.64-1.82-7.46-3.73-11.17-5.59
			C123.41,114.79,114.82,123.37,106.08,132.11z M98.06,89.01c-5.09,0.02-9.08,4.04-9.06,9.12c0.02,5.04,4.15,9.12,9.16,9.07
			c4.94-0.05,9.01-4.16,9.03-9.09C107.2,93.09,103.1,89,98.06,89.01z"/>
	</g>
</g>
</svg>
