<?xml version="1.0" encoding="utf-8"?>
<!-- Generator: Adobe Illustrator 27.0.0, SVG Export Plug-In . SVG Version: 6.00 Build 0)  -->
<svg version="1.1" id="Layer_1" xmlns="http://www.w3.org/2000/svg" xmlns:xlink="http://www.w3.org/1999/xlink" x="0px" y="0px"
	 viewBox="0 0 150 150" style="enable-background:new 0 0 150 150;" xml:space="preserve">
<style type="text/css">
	.st0{fill:#E0A80D;}
</style>
<g>
	<path class="st0" d="M1.49,149.99c-1.16-0.71-1.52-1.74-1.49-3.08c0.07-3.42,0.02-6.83,0.03-10.25c0.01-1.99,0.76-2.75,2.72-2.77
		c0.97-0.01,1.95,0,3.02,0c0-17.56,0-35.05,0-52.55c-0.07-0.04-0.14-0.13-0.22-0.13c-3.35-0.18-3.62-0.47-3.63-3.83
		c0-1.51,0-3.03,0-4.54c0-3.59,0.23-3.84,3.84-4.03c0-17.49,0-34.98,0-52.67c-1.07,0-2.17,0.02-3.27-0.01
		c-1.62-0.04-2.45-0.83-2.46-2.44c-0.03-3.76-0.03-7.52,0-11.28C0.05,0.88,0.88,0.05,2.4,0.03C6.21,0,10.02,0,13.83,0.04
		c1.44,0.01,2.24,0.86,2.3,2.3c0.04,1.11,0.01,2.23,0.01,3.54c1.92,0,3.76,0,5.59,0c2.05,0,4.1-0.01,6.15,0
		c1.6,0.01,2.58,0.84,2.61,2.15c0.03,1.36-0.98,2.23-2.66,2.24c-3.42,0.01-6.83,0-10.25,0c-0.43,0-0.86,0-1.43,0
		c0,1.19,0.02,2.25,0,3.31c-0.04,1.71-0.82,2.51-2.51,2.55c-1.06,0.03-2.13,0-3.27,0c0,17.62,0,35.11,0,52.6
		c3.87,0.48,3.88,0.49,3.88,4.44c0,1.61,0.01,3.22,0,4.83c-0.01,2.51-0.59,3.1-3.09,3.16c-0.24,0.01-0.47,0.03-0.79,0.05
		c0,17.54,0,35.04,0,52.67c1.17,0,2.28-0.03,3.39,0.01c1.53,0.05,2.33,0.85,2.38,2.37c0.04,1.11,0.01,2.22,0.01,3.4
		c17.59,0,35.05,0,52.51,0c0.05-0.06,0.16-0.13,0.17-0.21c0.27-3.51,0.43-3.65,3.93-3.66c1.76,0,3.51,0,5.27,0
		c2.52,0.01,3.08,0.56,3.15,3.08c0.01,0.23,0.03,0.47,0.06,0.85c0.58,0,1.1,0,1.62,0c9.57,0,19.13,0,28.7,0
		c0.44,0,0.89-0.04,1.32,0.03c1.22,0.2,1.96,0.94,1.95,2.18c-0.01,1.24-0.76,1.97-1.98,2.15c-0.43,0.06-0.88,0.03-1.32,0.03
		c-9.52,0-19.04,0-28.56,0c-0.53,0-1.06,0-1.54,0c-0.11,0.15-0.21,0.23-0.22,0.3c-0.23,3.42-0.49,3.67-3.95,3.67
		c-1.71,0-3.42,0.01-5.13,0c-2.63-0.01-3.2-0.56-3.27-3.14c-0.01-0.23-0.03-0.46-0.06-0.76c-17.53,0-34.99,0-52.52,0
		c-0.6,1.89,0.81,4.4-1.61,5.79C10.28,149.99,5.88,149.99,1.49,149.99z M11.64,11.67c0-2.46,0-4.81,0-7.14c-2.46,0-4.81,0-7.15,0
		c0,2.43,0,4.75,0,7.14C6.88,11.67,9.2,11.67,11.64,11.67z M11.67,138.37c-2.45,0-4.81,0-7.14,0c0,2.45,0,4.81,0,7.15
		c2.43,0,4.75,0,7.14,0C11.67,143.14,11.67,140.82,11.67,138.37z M76.7,140.28c-1.19,0-2.24,0-3.34,0c0,1.16,0,2.24,0,3.35
		c1.16,0,2.21,0,3.34,0C76.7,142.5,76.7,141.46,76.7,140.28z M9.76,73.35c-1.17,0-2.25,0-3.35,0c0,1.16,0,2.21,0,3.31
		c1.17,0,2.25,0,3.35,0C9.76,75.5,9.76,74.45,9.76,73.35z"/>
	<path class="st0" d="M135.35,149.99c-1.16-0.71-1.6-1.74-1.48-3.09c0.08-0.86,0.01-1.74,0.01-2.77c-3.17,0-6.23,0-9.29,0
		c-0.54,0-1.08,0.02-1.61-0.01c-1.36-0.08-2.27-0.98-2.27-2.19c0-1.21,0.92-2.16,2.28-2.18c3.22-0.04,6.44-0.02,9.66-0.02
		c0.34,0,0.67,0,1.23,0c0-0.97,0-1.88,0-2.78c0.01-2.39,0.67-3.07,3.01-3.08c0.88,0,1.75,0,2.74,0c0-17.55,0-35.04,0-52.55
		c-0.05-0.04-0.13-0.13-0.21-0.13c-3.38-0.2-3.64-0.47-3.64-3.82c0-1.76,0-3.51,0-5.27c0.01-2.64,0.53-3.18,3.13-3.26
		c0.23-0.01,0.46-0.03,0.75-0.06c0-17.54,0-35,0-52.67c-1,0-2.01,0.01-3.01,0c-1.99-0.02-2.76-0.76-2.78-2.72
		c-0.01-0.97,0-1.95,0-3.03c-17.56,0-35.05,0-52.55,0c-0.04,0.06-0.13,0.14-0.13,0.21c-0.19,3.34-0.51,3.65-3.82,3.65
		c-1.51,0-3.03,0-4.54,0c-3.56,0-3.85-0.27-4.04-3.97c-0.5,0-1.01,0-1.52,0c-9.13,0-18.26,0-27.38,0c-0.44,0-0.89,0.04-1.31-0.04
		c-1.21-0.23-1.93-0.99-1.9-2.23c0.03-1.16,0.74-1.88,1.89-2.09c0.43-0.08,0.88-0.04,1.31-0.04c9.08,0,18.16,0,27.24,0
		c0.53,0,1.05,0,1.52,0c0.1-0.2,0.17-0.29,0.18-0.37c0.13-3.25,0.46-3.57,3.71-3.57c1.85,0,3.71-0.01,5.56,0
		c2.41,0.01,3.01,0.61,3.06,3.02c0,0.24,0.02,0.48,0.04,0.81c17.52,0,35.01,0,52.68,0c0-1.07-0.02-2.13,0-3.19
		c0.03-1.73,0.8-2.56,2.48-2.57c3.71-0.03,7.42,0.02,11.13-0.02c1.18-0.01,1.88,0.62,2.5,1.48c0,4.39,0,8.79,0,13.18
		c-1.39,2.41-3.89,1.02-5.75,1.6c0,17.57,0,35.06,0,52.55c0.3,0.02,0.49,0.04,0.69,0.04c2.59,0.05,3.15,0.62,3.16,3.23
		c0.01,1.76,0,3.51,0,5.27c0,3.37-0.31,3.7-3.6,3.84c-0.08,0-0.16,0.08-0.27,0.15c0,17.47,0,34.95,0,52.55
		c0.95,0,1.83,0.06,2.69-0.01c1.35-0.12,2.38,0.32,3.08,1.48c0,4.88,0,9.76,0,14.65C145.12,149.99,140.24,149.99,135.35,149.99z
		 M138.35,11.65c2.42,0,4.78,0,7.16,0c0-2.44,0-4.79,0-7.13c-2.45,0-4.81,0-7.16,0C138.35,6.95,138.35,9.27,138.35,11.65z
		 M145.5,145.54c0-2.48,0-4.83,0-7.14c-2.46,0-4.82,0-7.14,0c0,2.44,0,4.76,0,7.14C140.76,145.54,143.08,145.54,145.5,145.54z
		 M76.7,6.42c-1.19,0-2.24,0-3.34,0c0,1.16,0,2.24,0,3.35c1.16,0,2.21,0,3.34,0C76.7,8.64,76.7,7.59,76.7,6.42z M143.62,73.36
		c-1.17,0-2.25,0-3.34,0c0,1.16,0,2.21,0,3.3c1.17,0,2.25,0,3.34,0C143.62,75.5,143.62,74.45,143.62,73.36z"/>
	<path class="st0" d="M75,23.65c4.39,0,8.79-0.01,13.18,0c3.35,0.01,5.15,1.27,6.26,4.43c10.86,30.94,21.72,61.89,32.58,92.84
		c1.14,3.24-0.4,5.44-3.81,5.44c-8.01,0.01-16.01,0.01-24.02,0c-3.24-0.01-5.05-1.28-6.19-4.35c-1.9-5.12-3.79-10.24-5.64-15.37
		c-0.3-0.84-0.63-1.24-1.62-1.23c-7.13,0.05-14.25,0.05-21.38,0c-0.97-0.01-1.34,0.36-1.65,1.2c-1.85,5.08-3.74,10.15-5.63,15.22
		c-1.23,3.31-2.99,4.53-6.51,4.53c-7.86,0.01-15.72,0.01-23.58,0c-3.63,0-5.14-2.13-3.94-5.55c10.8-30.81,21.6-61.62,32.4-92.43
		c1.23-3.5,2.95-4.72,6.65-4.73C66.41,23.64,70.7,23.65,75,23.65z M108.42,121.94c-0.2-0.6-0.34-1.06-0.49-1.51
		c-6.04-17.24-12.09-34.48-18.13-51.72c-0.76-2.16-1.54-4.32-2.23-6.5c-0.39-1.23,0.21-2.35,1.31-2.72
		c1.14-0.38,2.24,0.11,2.77,1.26c0.16,0.35,0.26,0.73,0.39,1.1c6.61,18.85,13.22,37.7,19.82,56.55c1.25,3.57,1.25,3.57,5.06,3.57
		c1.87,0,3.74,0,5.75,0c-0.24-0.78-0.38-1.29-0.56-1.79c-7.07-20.14-14.14-40.27-21.21-60.4c-3.48-9.93-6.94-19.87-10.46-29.79
		c-0.25-0.7-0.88-1.77-1.38-1.8c-2.89-0.17-5.79-0.08-8.82-0.08c0.19,0.6,0.32,1.02,0.46,1.42c2.37,6.76,4.75,13.51,7.12,20.27
		c0.19,0.55,0.42,1.11,0.51,1.68c0.17,1.1-0.3,1.96-1.32,2.35c-1.06,0.4-2.04,0.15-2.67-0.88c-0.25-0.41-0.39-0.89-0.55-1.35
		c-2.54-7.22-5.1-14.43-7.58-21.66c-0.47-1.35-1.14-1.95-2.63-1.92c-3.76,0.09-7.52,0.1-11.27,0c-1.52-0.04-2.26,0.49-2.76,1.93
		c-10.53,30.13-21.1,60.24-31.66,90.35c-0.17,0.49-0.29,1-0.48,1.66c3.36,0,6.57,0.05,9.77-0.05c0.46-0.01,1.07-0.64,1.31-1.13
		c0.52-1.04,0.85-2.17,1.27-3.26c0.65-1.67,1.65-2.28,2.96-1.81c1.33,0.47,1.74,1.69,1.13,3.4c-0.32,0.9-0.65,1.8-1.05,2.88
		c2.7,0,5.18-0.07,7.66,0.03c1.41,0.05,2.11-0.49,2.57-1.8c1.59-4.45,3.27-8.87,4.91-13.3c0.16-0.43,0.28-0.88,0.47-1.47
		c-2.06,0-3.93,0.17-5.76-0.04c-2.65-0.31-4.56,0.21-4.92,3.24c-0.01,0.05-0.03,0.09-0.05,0.14c-0.59,1.24-1.72,1.76-2.88,1.32
		c-1.12-0.42-1.63-1.61-1.19-2.9c0.44-1.29,0.93-2.57,1.41-3.84c0.78-2.08,1.09-2.3,3.32-2.3c13.03,0,26.06,0,39.1,0
		c2.29,0,2.61,0.23,3.4,2.4c2.07,5.62,4.11,11.26,6.24,16.86c0.24,0.63,0.92,1.54,1.43,1.56
		C101.76,122.01,105.02,121.94,108.42,121.94z"/>
	<path class="st0" d="M67.83,90.79c-4.93,0-9.86,0.01-14.79,0c-2.68,0-3.53-1.2-2.65-3.74c5.05-14.49,10.11-28.98,15.14-43.48
		c0.41-1.17,0.89-2.22,2.33-2.23c1.45-0.01,1.96,1.03,2.37,2.19c5.09,14.53,10.19,29.06,15.28,43.59c0.86,2.44-0.01,3.67-2.6,3.67
		C77.89,90.8,72.86,90.79,67.83,90.79z M67.89,50.18c-4.28,12.28-8.42,24.17-12.62,36.22c3.1,0,5.97,0.04,8.84-0.05
		c0.39-0.01,0.95-0.59,1.11-1.02c2.42-6.84,4.8-13.69,7.17-20.55c0.14-0.4,0.3-0.9,0.18-1.25C71.08,59.2,69.55,54.9,67.89,50.18z
		 M80.58,86.35c-1.82-5.18-3.6-10.26-5.39-15.35c-0.11,0.01-0.22,0.03-0.33,0.04c-1.76,5.06-3.51,10.12-5.31,15.3
		C73.37,86.35,76.88,86.35,80.58,86.35z"/>
</g>
</svg>
