<?xml version="1.0" encoding="utf-8"?>
<!-- Generator: Adobe Illustrator 27.0.0, SVG Export Plug-In . SVG Version: 6.00 Build 0)  -->
<svg version="1.1" id="Layer_1" xmlns="http://www.w3.org/2000/svg" xmlns:xlink="http://www.w3.org/1999/xlink" x="0px" y="0px"
	 viewBox="0 0 150 150" style="enable-background:new 0 0 150 150;" xml:space="preserve">
<style type="text/css">
	.st0{fill:#191919;}
</style>
<g>
	<path class="st0" d="M0.5,37.4c1-2,2.6-2.8,4.8-2.7c2.6,0.1,5.2-0.2,7.7,0.1c2.1,0.3,6-1.7,6,2.1c0,3.9-3.9,1.9-6.1,2.2
		c-2.6,0.3-5.2,0.1-8,0.1c0,34.3,0,68.5,0,102.8c20.6,0,41.1,0,61.8,0c0-2.7,0-5.4,0-8.3c-0.5,0-1.1,0-1.7,0c-7.9,0-15.7,0-23.6,0
		c-2.5,0-4.4-0.9-5.3-3.4c-0.1-0.3-0.9-0.6-1.4-0.6c-6.3,0-12.6,0-18.9,0c-0.4,0-0.9,0-1.3,0c-1.4-0.1-2.2-1-2.2-2.3
		c0-1.2,0.9-2.1,2.3-2.1c4.9,0,9.8,0,14.7,0c2.1,0,4.2,0,6.5,0c0-2,0-3.9,0-6c-0.5,0-1,0-1.6,0c-6.5,0-13,0-19.5,0
		c-1.5,0-2.4-0.9-2.5-2.1c0-1.3,0.9-2.2,2.3-2.2c0.3,0,0.7,0,1,0c4.1,0,8.2,0,12.4,0c2.5,0,5,0.1,7.4,0c0.6,0,1.3-0.3,1.7-0.7
		c1.2-1.2,2.6-1.4,4.1-1.4c7.9,0,15.7,0,23.6,0c0.6,0,1.1,0,1.8,0c0-2.5,0-4.9,0-7.3c-1.3-0.3-2.7-0.5-4-1c-3.2-1.3-6.3-2.9-9.5-4.3
		c-0.8-0.4-1.7-0.7-2.5-0.7c-12.2-0.1-24.4,0-36.5,0c-3.6,0-4.8-1.1-4.8-4.8c0-9.5,0-18.9,0-28.4c0-3.2,1.3-4.5,4.5-4.5
		c14.5,0,28.9,0,43.4,0c3.8,0,4.8,0.9,5,4.8c0,0.2,0,0.4,0.1,0.7c1.3-0.3,2.6-0.5,3.8-0.9c0.3-0.1,0.7-0.6,0.7-0.9
		c0-8.6,0-17.2,0-26.1c-0.7,0-1.2,0-1.8,0c-12.1,0-24.2,0-36.4,0c-0.5,0-1.1,0-1.6-0.1c-1.1-0.3-1.8-1-1.7-2.2
		c0.1-1.2,0.7-1.9,1.9-2c0.4-0.1,0.8,0,1.2,0c12.8,0,25.5,0,38.3,0c3.2,0,4.5,1.2,4.5,4.5c0,8.1,0,16.3,0,24.5c0,0.5,0,1.1,0,1.9
		c1.2,0,2.3-0.1,3.3,0c12.9,0.8,22.8,6.8,29.7,17.8c1,1.6,0.9,3.1,0,4.6c-7.3,11.5-17.7,17.4-31.3,17.8c-0.5,0-1,0-1.6,0
		c0,2.3,0,4.5,0,6.9c0.6,0,1.2,0,1.8,0c11.6,0,23.3,0,34.9,0c2.7,0,5.3,0.6,7.7,1.9c3.2,1.8,6.4,3.5,9.6,5.2
		c1.3,0.7,2.4,1.6,2.4,3.3c0,1.7-1.1,2.6-2.4,3.3c-3.2,1.7-6.4,3.4-9.6,5.2c-2.4,1.4-5,2-7.8,2c-11.6,0-23.2,0-34.8,0
		c-0.6,0-1.2,0-2,0c0,0.6,0,1,0,1.5c0,2.5,0,5,0,7.6c0,2.1-1.4,3.5-3.6,3.6c-0.4,0-0.8,0-1.2,0c-20.4,0-40.8,0-61.2,0
		c-2.2,0-3.8-0.6-4.8-2.8C0.5,108.2,0.5,72.8,0.5,37.4z M13.9,94.7c11,0,21.9,0,32.6,0c-1.6-2.2-3.2-4.4-4.8-6.6
		c-1.1-1.6-1-3.2,0-4.9c3.6-5.8,8.4-10.4,14.4-13.6c2-1,2.1-1.3,1.5-3.6c-14.6,0-29.1,0-43.8,0C13.9,75.6,13.9,85.1,13.9,94.7z
		 M72.9,101.4c11.5-0.5,20.6-5.2,27-14.8c0.5-0.8,0.5-1.3,0-2.1c-12.3-19.4-41.4-19.5-53.8,0c-0.6,0.9-0.5,1.5,0,2.3
		C52.5,96.2,61.6,100.9,72.9,101.4z M54.4,129.1c17.3,0,34.5,0,51.7,0c0-1.3,0-2.5,0-3.8c-0.6,0-1.1,0-1.7,0c-2.4,0-4.8,0-7.1,0
		c-1.4,0-2.2-0.9-2.2-2.2c0-1.2,0.9-2.1,2.2-2.2c0.5,0,1.1,0,1.6,0c2.4,0,4.8,0,7.2,0c0-1.4,0-2.6,0-3.8c-17.3,0-34.4,0-51.6,0
		c0,1.3,0,2.5,0,3.8c0.6,0,1.1,0,1.7,0c9.9,0,19.9,0,29.8,0c0.4,0,0.9-0.1,1.3,0c1.2,0.2,1.9,0.9,1.9,2.2c0,1.2-0.7,2-2,2.1
		c-0.4,0.1-0.9,0-1.3,0c-9.9,0-19.9,0-29.8,0c-0.5,0-1,0-1.6,0C54.4,126.7,54.4,127.9,54.4,129.1z M49.8,129.3c0-4.2,0-8.1,0-12.2
		c-3,0-5.9,0-8.7,0c-0.2,0-0.6,0.6-0.6,0.9c0,3.5,0,7,0,10.4c0,0.3,0.5,0.8,0.8,0.8C44.1,129.3,46.9,129.3,49.8,129.3z M110.6,117
		c0,4.2,0,8.1,0,12.3c1.5-0.7,2.8-1.3,4.1-2c0.3-0.2,0.5-0.7,0.5-1.1c0.1-2,0-4.1,0-6.1c0-0.3-0.1-0.9-0.3-1
		C113.5,118.3,112.1,117.7,110.6,117z M119.7,121.7c0,1.1,0,1.9,0,2.9c0.9-0.5,1.7-0.9,2.6-1.5C121.3,122.6,120.5,122.2,119.7,121.7
		z"/>
	<path class="st0" d="M149.5,41.5c-0.8,1.2-1.9,1.6-3.4,1.3c-1-0.2-2-0.2-3-0.4c-1.1-0.3-1.6-1.1-1.5-2.3c0.1-1.1,0.8-1.9,1.9-1.8
		c1.5,0,3.1,0.2,4.6,0.5c0.6,0.1,1,0.9,1.4,1.3C149.5,40.5,149.5,41,149.5,41.5z"/>
	<path class="st0" d="M123.6,57.3c-1-3.4,1.3-4.6,3.4-6.3c6.2-4.8,8.3-11.2,6.7-18.8c-0.2-0.8,0-1.9,0.4-2.5c0.3-0.5,1.5-0.8,2-0.6
		c0.7,0.3,1.5,1.1,1.7,1.9c1.5,5.5,0.9,10.9-1.6,15.9c-1.7,3.4-4.2,6.1-7.3,8.3c-1.4,1-1.3,1.8-0.2,3.1c0.6,0.7,1.1,1.7,1.1,2.6
		c0.1,3.3,0.1,6.6,0,9.9c0,2.1-1.4,3.4-3.5,3.5c-1,0.1-2,0-3.2,0c0,1.1,0,2,0,2.9c-0.1,2.2-1.5,3.8-3.7,3.9c-2.1,0.1-4.2,0.1-6.2,0
		c-2.3-0.1-3.7-1.6-3.8-3.9c0-0.9,0-1.8,0-2.9c-1.1,0-2.1,0-3,0c-2.3-0.1-3.7-1.4-3.7-3.6c-0.1-3.2-0.1-6.5,0-9.8
		c0-0.9,0.6-1.9,1.2-2.7c1-1.2,1-2.2-0.2-3.1c-7.6-5.6-11.1-13.1-9.4-22.4C96,23.2,102,17,111.4,14.8c7.6-1.8,14.5,0.2,20.3,5.5
		c1.1,1,1.2,2.3,0.4,3.2c-0.8,1-2.2,1-3.4,0c-0.1-0.1-0.3-0.3-0.4-0.4c-3.6-3.1-7.7-4.6-12.4-4.5c-7.8,0.1-14.7,5.4-16.9,12.8
		c-2.3,7.5,0.6,15.7,7.1,20.1c0.4,0.2,0.7,0.5,1.1,0.7c1.3,0.6,1.9,1.7,1.8,3.2c-0.1,0.6,0,1.2,0,1.8c1.7,0,3.3,0,5.1,0
		c0-2.8,0-5.5,0-8.3c0-0.3-0.4-0.7-0.8-0.9c-2.1-1.3-3.2-3.2-3.2-5.7c0-1.5,0-2.9,0-4.4c0.1-3.5,2.6-6.1,6-6.2s6.2,2.4,6.4,5.8
		c0.1,1.7,0.1,3.5,0,5.2c-0.1,2.3-1.2,4-3.2,5.2c-0.3,0.2-0.7,0.7-0.7,1c-0.1,2.4,0,4.8,0,7.1c0,0.3,0,0.6,0.1,1
		C120,57.3,121.6,57.3,123.6,57.3z M107,69.8c6.2,0,12.2,0,18.3,0c0-2.7,0-5.3,0-8c-6.2,0-12.2,0-18.3,0C107,64.6,107,67.2,107,69.8
		z M118,40.5c0-0.9,0.1-1.7,0-2.6c-0.1-1-0.8-1.7-1.8-1.7c-1.1,0-1.8,0.6-1.8,1.7c-0.1,1.6-0.1,3.2,0,4.8c0,1.1,0.7,1.7,1.8,1.7
		s1.8-0.5,1.9-1.6C118.1,42.1,118,41.3,118,40.5z M118.6,74.4c-1.7,0-3.3,0-4.8,0c0,0.8,0,1.5,0,2.2c1.7,0,3.2,0,4.8,0
		C118.6,75.9,118.6,75.2,118.6,74.4z"/>
	<path class="st0" d="M35.8,104.6c6.7,0,13.5,0,20.2,0c0.5,0,1.1-0.2,1.4,0.1c0.7,0.5,1.5,1.1,1.8,1.8c0.4,1-0.2,1.9-1.3,2.3
		c-0.6,0.2-1.2,0.2-1.9,0.2c-13.5,0-26.9,0-40.4,0c-0.3,0-0.7,0-1,0c-1.4-0.2-2.2-1-2.2-2.2s0.9-2.1,2.3-2.1c3.4,0,6.8,0,10.2,0
		C28.6,104.6,32.2,104.6,35.8,104.6z"/>
	<path class="st0" d="M36,49.6c3.5,0,7,0,10.5,0c1.7,0,2.7,0.8,2.7,2.2s-1,2.2-2.7,2.2c-7,0-14.1,0-21.1,0c-1.7,0-2.7-0.8-2.7-2.2
		s1-2.2,2.7-2.2C28.9,49.6,32.4,49.6,36,49.6z"/>
	<path class="st0" d="M91.9,28.2c0,1.9-1.2,3-2.5,2.7s-2.6-0.7-3.9-1.2c-1.2-0.5-1.7-1.6-1.3-2.7c0.4-1.1,1.4-1.7,2.7-1.4
		c1.2,0.3,2.4,0.6,3.4,1.1C91.1,27.1,91.6,27.9,91.9,28.2z"/>
	<path class="st0" d="M94.4,51.3c0,1.9-4.8,4.6-6.4,3.7c-1.4-0.8-1.5-2.7-0.2-3.6c1.1-0.8,2.3-1.5,3.5-2
		C92.8,48.6,94.5,49.7,94.4,51.3z"/>
	<path class="st0" d="M142.3,31.2c-0.6-0.6-1.5-1.1-1.7-1.9c-0.1-0.7,0.2-2,0.8-2.3c1.4-0.8,2.9-1.3,4.5-1.5c0.6-0.1,1.8,0.7,2,1.4
		c0.2,0.6-0.1,2-0.6,2.4C145.9,30.1,144.2,30.5,142.3,31.2z"/>
	<path class="st0" d="M107.4,12.1c-0.7,0.7-1.3,1.6-2.1,1.8c-0.7,0.1-1.9-0.3-2.3-0.9c-0.8-1.1-1.3-2.5-1.8-3.8c-0.3-1,0-2.1,1-2.4
		c0.8-0.2,2.1-0.2,2.4,0.3C105.8,8.5,106.4,10.2,107.4,12.1z"/>
	<path class="st0" d="M131.5,8.4c-0.9,1.9-1.6,3.5-2.6,5c-0.5,0.8-1.7,1-2.5,0.3c-0.6-0.6-1.2-1.6-1-2.3c0.3-1.4,1-2.9,1.8-4.1
		c0.4-0.6,1.6-0.9,2.4-0.7C130.3,6.8,130.8,7.7,131.5,8.4z"/>
	<path class="st0" d="M136.9,20.9c-1.8,0-2.9-1.9-1.9-3.2c1.1-1.3,2.4-2.4,3.8-3.3c0.5-0.3,1.8,0,2.2,0.5c0.5,0.5,0.7,1.9,0.4,2.3
		c-1.1,1.3-2.5,2.4-3.8,3.5C137.4,20.9,137.1,20.8,136.9,20.9z"/>
	<path class="st0" d="M85.2,42.8c-1.3,0-2.3-0.8-2.4-1.9c-0.2-1.2,0.6-2.2,1.9-2.4c1.2-0.2,2.4-0.3,3.6-0.4c1.3-0.1,2.2,0.7,2.3,1.9
		c0.1,1.2-0.5,2.1-1.8,2.4C87.7,42.6,86.4,42.7,85.2,42.8z"/>
	<path class="st0" d="M140,48.6c1.8,1.3,3.6,2.3,5,3.6c0.3,0.3,0.1,1.8-0.3,2.3c-0.5,0.5-1.7,0.8-2.4,0.5c-1.2-0.4-2.5-1.1-3.5-2
		c-0.6-0.5-0.9-1.6-0.7-2.4C138.2,49.9,139.2,49.4,140,48.6z"/>
	<path class="st0" d="M118.3,7.6c0,0.6,0.1,1.3,0,1.9c-0.1,1.3-1,2.1-2.2,2.1s-2.1-0.8-2.1-2.1c-0.1-1.2-0.1-2.4,0-3.6
		c0.1-1.3,1-2.2,2.2-2.2c1.1,0,2,0.9,2.2,2.1C118.4,6.4,118.3,7,118.3,7.6z"/>
	<path class="st0" d="M95.7,21.1c-0.7-0.3-1.3-0.5-1.7-0.8c-0.9-0.8-1.8-1.6-2.7-2.4c-0.9-0.9-0.9-2.1-0.2-3c0.8-0.9,2-1.1,3-0.3
		s2.1,1.6,2.9,2.6c0.4,0.6,0.6,1.6,0.4,2.3C97.1,20.2,96.2,20.6,95.7,21.1z"/>
	<path class="st0" d="M60.1,85.5c0-7.2,5.9-13,13-12.9s12.8,5.9,12.8,12.9c0,7.2-5.8,13-13.1,12.9C65.7,98.5,60,92.7,60.1,85.5z
		 M67.7,79c-2.9,2.2-4,6.1-2.7,9.6c1.4,3.6,4.9,5.8,8.8,5.5c2.9-0.2,6-2.4,6.4-4.5C73.6,89.1,69.5,85.5,67.7,79z M81.4,85
		c0.2-5.6-6.6-9.1-9.3-7.6C72.3,82.1,76.9,85.9,81.4,85z"/>
</g>
</svg>
