<?xml version="1.0" encoding="utf-8"?>
<!-- Generator: Adobe Illustrator 27.0.0, SVG Export Plug-In . SVG Version: 6.00 Build 0)  -->
<svg version="1.1" id="Layer_1" xmlns="http://www.w3.org/2000/svg" xmlns:xlink="http://www.w3.org/1999/xlink" x="0px" y="0px"
	 viewBox="0 0 150 150" style="enable-background:new 0 0 150 150;" xml:space="preserve">
<style type="text/css">
	.st0{fill:#191919;}
</style>
<g>
	<g>
		<path class="st0" d="M0,77.6c1.1-3.2,3.1-5.4,6.7-5.7c0.7-0.1,1.5-0.1,2,0.2c1.4,0.7,2.2,0,3.1-0.9c6.7-6.8,13.5-13.5,20.3-20.3
			c0.3-0.3,0.7-0.7,1-1c-2.8-4.7-3-10.7,1.8-15.5c3.3-3.2,9-4.9,15-1.4c0.3-0.2,0.6-0.5,0.9-0.8c7-7,14-14,21-21
			c0.4-0.4,0.7-1.2,0.6-1.7c-1.2-4.3,0.7-7.8,4.8-9.3c0.2-0.1,0.3-0.2,0.5-0.3c1,0,1.9,0,2.9,0C80.7,0,80.8,0.1,81,0.1
			c4.2,1.5,6.2,5.2,5,9c-1.3,4.2-5.9,6-9.2,4.7c-0.4-0.1-1.2,0.2-1.6,0.6c-3.8,3.8-7.6,7.6-11.4,11.3c-0.2,0.2-0.5,0.5-0.7,0.9
			c24.5-9.4,47.4-6.7,69,8.4c1.1-1.2,2.2-2.4,3.4-3.6c1.4-1.4,2.6-1.4,4,0c2.5,2.5,5,5,7.4,7.5c1.1,1.1,2.1,2.3,3.1,3.4
			c0,0.5,0,1,0,1.5c-3.7,3.7-7.3,7.4-11,11.1c-1,1-2.3,1-3.3,0c-3.5-3.4-6.9-6.8-10.3-10.2c-1-1-0.9-2.3,0.1-3.4
			c0.9-1,1.8-1.9,2.7-2.8c-20.9-16.1-52.2-17-74.4-1.2c2.3,5.5,1.8,10.5-2.7,14.6c-4,3.7-8.8,3.9-13.6,1.7
			c-14.7,19.8-16.2,51.6,1.2,74.6c0.9-1,1.7-2,2.6-2.8c1.2-1.2,2.5-1.2,3.7,0c3.3,3.3,6.6,6.6,9.9,10c1.1,1.1,1.1,2.4,0.1,3.4
			c-3.7,3.7-7.4,7.3-11.1,11c-0.5,0-1,0-1.5,0c-0.4-0.3-0.9-0.6-1.3-1c-3.3-3.2-6.5-6.5-9.7-9.7c-1.3-1.4-1.3-2.5,0.1-3.9
			c1.2-1.2,2.5-2.3,3.6-3.4c-15.1-21.7-17.8-44.6-8.6-69c-4.1,3.9-8,7.9-11.9,11.9c-0.8,0.8-0.9,1.4-0.6,2.4c1.1,3.7-1,7.4-4.6,8.6
			c-3.5,1.2-7.4-0.5-8.9-3.9c-0.2-0.4-0.4-0.8-0.6-1.1C0,79.8,0,78.7,0,77.6z M43.2,50.5c4.1,0,7.3-3.3,7.2-7.4c0-4-3.3-7.3-7.3-7.3
			s-7.4,3.4-7.4,7.4C35.8,47.2,39.2,50.5,43.2,50.5z M36.6,137.3c2.2,2.2,4.5,4.5,6.6,6.6c2.2-2.2,4.5-4.4,6.7-6.6
			c-2.2-2.2-4.5-4.5-6.6-6.6C41,132.8,38.8,135.1,36.6,137.3z M137.3,49.7c2.2-2.2,4.5-4.5,6.6-6.6c-2.1-2.2-4.4-4.4-6.5-6.5
			c-2.2,2.2-4.4,4.4-6.6,6.6C132.9,45.3,135.2,47.5,137.3,49.7z M81.6,7.2c0-1.4-1.1-2.5-2.4-2.6c-1.3,0-2.4,1-2.5,2.3
			c-0.1,1.4,1,2.6,2.3,2.6C80.4,9.7,81.6,8.6,81.6,7.2z M7.2,76.7c-1.4,0-2.3,0.9-2.3,2.2c0,1.4,1.1,2.5,2.5,2.5
			c1.3,0,2.3-1,2.3-2.3C9.7,77.7,8.6,76.7,7.2,76.7z"/>
		<path class="st0" d="M110.4,150c-0.6-0.7-1.3-1.3-1.7-2.1c-2.3-4.4-4.4-8.9-6.7-13.3c-0.4-0.7-1.2-1.4-1.9-1.7
			c-7.7-3-15.4-6-23.2-8.9c-1.3-0.5-2.1-1.2-2.6-2.5c-7.8-19.7-15.7-39.4-23.6-59c-0.6-1.6-0.5-2.7,0.8-3.9c2.4-2.3,4.7-4.7,7-7
			c1-1.1,2.1-1.3,3.5-0.8c19.9,8,39.7,15.9,59.6,23.8c1.2,0.5,1.8,1.3,2.2,2.5c2.9,7.7,5.9,15.5,8.9,23.2c0.3,0.8,1,1.6,1.7,1.9
			c4.4,2.3,8.9,4.5,13.3,6.7c0.8,0.4,1.4,1.1,2.1,1.7c0,0.5,0,1,0,1.5c-0.5,0.6-0.9,1.2-1.4,1.7c-11.7,11.7-23.3,23.4-35,35
			c-0.5,0.5-1.1,0.9-1.7,1.4C111.4,150,110.9,150,110.4,150z M56.5,60.1c-0.7,0.5-1.2,1-0.7,2.3c7.5,18.6,15,37.3,22.4,55.9
			c0.4,0.9,0.9,1.4,1.8,1.7c7.2,2.7,14.3,5.4,21.4,8.2c1,0.4,1.6,0.2,2.3-0.5c8.1-8.1,16.1-16.2,24.2-24.2c0.8-0.7,0.8-1.3,0.5-2.3
			c-2.8-7-5.5-14.1-8.1-21.2c-0.4-1.1-1.1-1.7-2.1-2.1c-18.5-7.3-36.9-14.7-55.4-22.2c-1.3-0.5-2-0.3-2.4,0.5
			c10.1,10.1,20.2,20.1,30.2,30.2c7.3-4.6,15.1-1.7,18.7,3.2c4.1,5.5,3.6,13.1-1.2,18c-4.8,4.9-12.4,5.5-17.9,1.5
			c-4.7-3.4-8.2-11-3.4-19C76.6,80.2,66.6,70.2,56.5,60.1z M106.1,132.1c1.9,3.8,3.8,7.6,5.6,11.2c10.6-10.6,21.1-21.1,31.6-31.6
			c-3.6-1.8-7.5-3.7-11.2-5.6C123.4,114.8,114.8,123.4,106.1,132.1z M98.1,89C93,89,89,93,89,98.1c0,5,4.2,9.1,9.2,9.1
			c4.9-0.1,9-4.2,9-9.1C107.2,93.1,103.1,89,98.1,89z"/>
	</g>
</g>
</svg>
