<?xml version="1.0" encoding="utf-8"?>
<!-- Generator: Adobe Illustrator 27.0.0, SVG Export Plug-In . SVG Version: 6.00 Build 0)  -->
<svg version="1.1" id="Layer_1" xmlns="http://www.w3.org/2000/svg" xmlns:xlink="http://www.w3.org/1999/xlink" x="0px" y="0px"
	 viewBox="0 0 150 150" style="enable-background:new 0 0 150 150;" xml:space="preserve">
<style type="text/css">
	.st0{fill:#191919;}
</style>
<g>
	<path class="st0" d="M1.5,150c-1.2-0.7-1.5-1.7-1.5-3.1c0.1-3.4,0-6.8,0-10.2c0-2,0.8-2.8,2.7-2.8c1,0,1.9,0,3,0
		c0-17.6,0-35.1,0-52.6c-0.1,0-0.1-0.1-0.2-0.1c-3.3-0.2-3.6-0.5-3.6-3.8c0-1.5,0-3,0-4.5c0-3.6,0.2-3.8,3.8-4c0-17.5,0-35,0-52.7
		c-1.1,0-2.2,0-3.3,0c-1.6,0-2.5-0.8-2.5-2.4C0,9.9,0,6.2,0,2.4C0,0.9,0.8,0,2.4,0C6.2,0,10,0,13.8,0c1.4,0,2.2,0.9,2.3,2.3
		c0,1.1,0,2.2,0,3.5c1.9,0,3.8,0,5.6,0c2,0,4.1,0,6.1,0c1.6,0,2.6,0.8,2.6,2.2s-1,2.2-2.7,2.2c-3.4,0-6.8,0-10.2,0
		c-0.4,0-0.9,0-1.4,0c0,1.2,0,2.2,0,3.3c0,1.7-0.8,2.5-2.5,2.5c-1.1,0-2.1,0-3.3,0c0,17.6,0,35.1,0,52.6c3.9,0.5,3.9,0.5,3.9,4.4
		c0,1.6,0,3.2,0,4.8c0,2.5-0.6,3.1-3.1,3.2c-0.2,0-0.5,0-0.8,0.1c0,17.5,0,35,0,52.7c1.2,0,2.3,0,3.4,0c1.5,0.1,2.3,0.9,2.4,2.4
		c0,1.1,0,2.2,0,3.4c17.6,0,35,0,52.5,0c0.1-0.1,0.2-0.1,0.2-0.2c0.3-3.5,0.4-3.6,3.9-3.7c1.8,0,3.5,0,5.3,0c2.5,0,3.1,0.6,3.2,3.1
		c0,0.2,0,0.5,0.1,0.9c0.6,0,1.1,0,1.6,0c9.6,0,19.1,0,28.7,0c0.4,0,0.9,0,1.3,0c1.2,0.2,2,0.9,1.9,2.2c0,1.2-0.8,2-2,2.1
		c-0.4,0.1-0.9,0-1.3,0c-9.5,0-19,0-28.6,0c-0.5,0-1.1,0-1.5,0c-0.1,0.1-0.2,0.2-0.2,0.3c-0.2,3.4-0.5,3.7-3.9,3.7
		c-1.7,0-3.4,0-5.1,0c-2.6,0-3.2-0.6-3.3-3.1c0-0.2,0-0.5-0.1-0.8c-17.5,0-35,0-52.5,0c-0.6,1.9,0.8,4.4-1.6,5.8
		C10.3,150,5.9,150,1.5,150z M11.6,11.7c0-2.5,0-4.8,0-7.1c-2.5,0-4.8,0-7.2,0c0,2.4,0,4.8,0,7.1C6.9,11.7,9.2,11.7,11.6,11.7z
		 M11.7,138.4c-2.4,0-4.8,0-7.1,0c0,2.4,0,4.8,0,7.1c2.4,0,4.8,0,7.1,0C11.7,143.1,11.7,140.8,11.7,138.4z M76.7,140.3
		c-1.2,0-2.2,0-3.3,0c0,1.2,0,2.2,0,3.4c1.2,0,2.2,0,3.3,0C76.7,142.5,76.7,141.5,76.7,140.3z M9.8,73.3c-1.2,0-2.2,0-3.3,0
		c0,1.2,0,2.2,0,3.3c1.2,0,2.2,0,3.3,0C9.8,75.5,9.8,74.4,9.8,73.3z"/>
	<path class="st0" d="M135.4,150c-1.2-0.7-1.6-1.7-1.5-3.1c0.1-0.9,0-1.7,0-2.8c-3.2,0-6.2,0-9.3,0c-0.5,0-1.1,0-1.6,0
		c-1.4-0.1-2.3-1-2.3-2.2s0.9-2.2,2.3-2.2c3.2,0,6.4,0,9.7,0c0.3,0,0.7,0,1.2,0c0-1,0-1.9,0-2.8c0-2.4,0.7-3.1,3-3.1
		c0.9,0,1.8,0,2.7,0c0-17.6,0-35,0-52.6c-0.1,0-0.1-0.1-0.2-0.1c-3.4-0.2-3.6-0.5-3.6-3.8c0-1.8,0-3.5,0-5.3c0-2.6,0.5-3.2,3.1-3.3
		c0.2,0,0.5,0,0.8-0.1c0-17.5,0-35,0-52.7c-1,0-2,0-3,0c-2,0-2.8-0.8-2.8-2.7c0-1,0-1.9,0-3c-17.6,0-35.1,0-52.6,0
		c0,0.1-0.1,0.1-0.1,0.2c-0.2,3.3-0.5,3.7-3.8,3.7c-1.5,0-3,0-4.5,0c-3.6,0-3.8-0.3-4-4c-0.5,0-1,0-1.5,0c-9.1,0-18.3,0-27.4,0
		c-0.4,0-0.9,0-1.3,0c-1.2-0.2-1.9-1-1.9-2.2s0.7-1.9,1.9-2.1c0.4-0.1,0.9,0,1.3,0c9.1,0,18.2,0,27.2,0c0.5,0,1.1,0,1.5,0
		c0.1-0.2,0.2-0.3,0.2-0.4c0.1-3.2,0.5-3.6,3.7-3.6c1.8,0,3.7,0,5.6,0c2.4,0,3,0.6,3.1,3c0,0.2,0,0.5,0,0.8c17.5,0,35,0,52.7,0
		c0-1.1,0-2.1,0-3.2c0-1.7,0.8-2.6,2.5-2.6c3.7,0,7.4,0,11.1,0c1.2,0,1.9,0.6,2.5,1.5c0,4.4,0,8.8,0,13.2c-1.4,2.4-3.9,1-5.8,1.6
		c0,17.6,0,35.1,0,52.6c0.3,0,0.5,0,0.7,0c2.6,0.1,3.1,0.6,3.2,3.2c0,1.8,0,3.5,0,5.3c0,3.4-0.3,3.7-3.6,3.8c-0.1,0-0.2,0.1-0.3,0.2
		c0,17.5,0,34.9,0,52.6c0.9,0,1.8,0.1,2.7,0c1.4-0.1,2.4,0.3,3.1,1.5c0,4.9,0,9.8,0,14.6C145.1,150,140.2,150,135.4,150z
		 M138.4,11.6c2.4,0,4.8,0,7.2,0c0-2.4,0-4.8,0-7.1c-2.4,0-4.8,0-7.2,0C138.4,6.9,138.4,9.3,138.4,11.6z M145.5,145.5
		c0-2.5,0-4.8,0-7.1c-2.5,0-4.8,0-7.1,0c0,2.4,0,4.8,0,7.1C140.8,145.5,143.1,145.5,145.5,145.5z M76.7,6.4c-1.2,0-2.2,0-3.3,0
		c0,1.2,0,2.2,0,3.4c1.2,0,2.2,0,3.3,0C76.7,8.6,76.7,7.6,76.7,6.4z M143.6,73.4c-1.2,0-2.2,0-3.3,0c0,1.2,0,2.2,0,3.3
		c1.2,0,2.2,0,3.3,0C143.6,75.5,143.6,74.4,143.6,73.4z"/>
	<path class="st0" d="M75,23.6c4.4,0,8.8,0,13.2,0c3.3,0,5.2,1.3,6.3,4.4c10.8,31,21.7,62,32.5,92.9c1.1,3.2-0.4,5.4-3.8,5.4
		c-8,0-16,0-24,0c-3.2,0-5.1-1.3-6.2-4.3c-1.9-5.1-3.8-10.2-5.6-15.4c-0.3-0.8-0.6-1.2-1.6-1.2c-7.1,0.1-14.2,0.1-21.4,0
		c-1,0-1.3,0.4-1.7,1.2c-1.8,5.1-3.7,10.2-5.6,15.2c-1.2,3.3-3,4.5-6.5,4.5c-7.9,0-15.7,0-23.6,0c-3.6,0-5.1-2.1-3.9-5.6
		C33.8,90,44.7,59.2,55.5,28.4c1.2-3.5,3-4.7,6.7-4.7C66.4,23.6,70.7,23.6,75,23.6z M108.4,121.9c-0.2-0.6-0.3-1.1-0.5-1.5
		c-6-17.2-12.1-34.5-18.1-51.7c-0.8-2.2-1.5-4.3-2.2-6.5c-0.4-1.2,0.2-2.3,1.3-2.7c1.1-0.4,2.2,0.1,2.8,1.3c0.2,0.3,0.3,0.7,0.4,1.1
		c6.6,18.9,13.2,37.7,19.8,56.5c1.2,3.6,1.2,3.6,5.1,3.6c1.9,0,3.7,0,5.8,0c-0.2-0.8-0.4-1.3-0.6-1.8C115,100,108,79.9,100.9,59.8
		C97.4,49.8,94,39.9,90.4,30c-0.2-0.7-0.9-1.8-1.4-1.8c-2.9-0.2-5.8-0.1-8.8-0.1c0.2,0.6,0.3,1,0.5,1.4c2.4,6.8,4.8,13.5,7.1,20.3
		c0.2,0.5,0.4,1.1,0.5,1.7c0.2,1.1-0.3,2-1.3,2.3c-1.1,0.4-2,0.2-2.7-0.9c-0.2-0.4-0.4-0.9-0.6-1.3c-2.5-7.2-5.1-14.4-7.6-21.7
		c-0.5-1.4-1.1-2-2.6-1.9c-3.8,0.1-7.5,0.1-11.3,0c-1.5,0-2.3,0.5-2.8,1.9C49,60.1,38.5,90.2,27.9,120.3c-0.2,0.5-0.3,1-0.5,1.7
		c3.4,0,6.6,0.1,9.8-0.1c0.5,0,1.1-0.6,1.3-1.1c0.5-1,0.8-2.2,1.3-3.3c0.7-1.7,1.7-2.3,3-1.8s1.7,1.7,1.1,3.4
		c-0.3,0.9-0.7,1.8-1,2.9c2.7,0,5.2-0.1,7.7,0c1.4,0.1,2.1-0.5,2.6-1.8c1.6-4.4,3.3-8.9,4.9-13.3c0.2-0.4,0.3-0.9,0.5-1.5
		c-2.1,0-3.9,0.2-5.8,0c-2.7-0.3-4.6,0.2-4.9,3.2c0,0.1,0,0.1,0,0.1c-0.6,1.2-1.7,1.8-2.9,1.3c-1.1-0.4-1.6-1.6-1.2-2.9
		c0.4-1.3,0.9-2.6,1.4-3.8c0.8-2.1,1.1-2.3,3.3-2.3c13,0,26.1,0,39.1,0c2.3,0,2.6,0.2,3.4,2.4c2.1,5.6,4.1,11.3,6.2,16.9
		c0.2,0.6,0.9,1.5,1.4,1.6C101.8,122,105,121.9,108.4,121.9z"/>
	<path class="st0" d="M67.8,90.8c-4.9,0-9.9,0-14.8,0c-2.7,0-3.5-1.2-2.7-3.7c5-14.5,10.1-29,15.1-43.5c0.4-1.2,0.9-2.2,2.3-2.2
		s2,1,2.4,2.2c5.1,14.5,10.2,29.1,15.3,43.6c0.9,2.4,0,3.7-2.6,3.7C77.9,90.8,72.9,90.8,67.8,90.8z M67.9,50.2
		c-4.3,12.3-8.4,24.2-12.6,36.2c3.1,0,6,0,8.8-0.1c0.4,0,0.9-0.6,1.1-1c2.4-6.8,4.8-13.7,7.2-20.6c0.1-0.4,0.3-0.9,0.2-1.2
		C71.1,59.2,69.6,54.9,67.9,50.2z M80.6,86.3C78.8,81.2,77,76.1,75.2,71c-0.1,0-0.2,0-0.3,0c-1.8,5.1-3.5,10.1-5.3,15.3
		C73.4,86.3,76.9,86.3,80.6,86.3z"/>
</g>
</svg>
