<?xml version="1.0" encoding="utf-8"?>
<!-- Generator: Adobe Illustrator 27.0.0, SVG Export Plug-In . SVG Version: 6.00 Build 0)  -->
<svg version="1.1" id="Layer_1" xmlns="http://www.w3.org/2000/svg" xmlns:xlink="http://www.w3.org/1999/xlink" x="0px" y="0px"
	 viewBox="0 0 243.9 243.9" style="enable-background:new 0 0 243.9 243.9;" xml:space="preserve">
<style type="text/css">
	.st0{fill:#EA7600;}
	.st1{fill:#265787;}
</style>
<g>
	<path class="st0" d="M76.2,141.3c-2.3,1.7-3.8,2.7-5.2,3.8c-13.8,11.3-27.5,22.6-41.3,33.9c-5.7,4.7-11.9,8-19.7,5.5
		c-6.8-2.3-10.7-8.7-7.9-15.3c2.1-4.8,5.5-9.6,9.6-12.8c26.6-20.8,53.6-41.2,80.4-61.7c1.3-1,2.5-2.1,5-4.1
		c-2.9-0.2-4.6-0.4-6.3-0.4c-12.7,0-25.3,0-38,0c-1,0-2,0-3,0c-7.5-0.1-12.6-3.1-13.5-7.9c-1.1-5.6,3.3-12,10.2-14.2
		c2.8-0.9,5.9-1.2,8.8-1.3c29.2-0.1,58.3-0.1,87.5-0.1c1.8,0,3.6,0,7,0c-2.2-2.1-3.3-3.3-4.5-4.4c-8.8-7.2-17.6-14.3-26.3-21.5
		c-6-4.9-5.1-11.7,1.9-15.1c5.8-2.9,11.6-2.7,16.9,1.3c25.5,19.5,51.1,38.9,76.4,58.8c17.7,13.9,27.9,32.4,28.3,54.9
		c0.6,29.8-13.6,51.9-38.8,66.9c-35.8,21.3-82.9,13.9-110.7-17.1c-10.4-11.6-16.1-25.5-17.6-41C75.3,147.3,75.9,144.9,76.2,141.3z
		 M159.2,185c6.4-1.4,13.1-2,19.3-4.2c32.7-11.6,43-49.6,20.3-74.2c-17.9-19.4-51.4-22.2-72.4-6.1c-20.6,15.8-25.4,42-11.1,61.8
		C126,177.1,140.8,184,159.2,185z"/>
	<path class="st1" d="M159.5,105.6c9.2,0.1,17.3,3.1,23.8,9.7c11.4,11.4,10.8,29.7-1.2,40.5c-12.3,11-31.9,11.4-44.6,0.9
		c-15.7-13-13.9-36.3,3.9-46.2c5.4-3,11.7-4.2,17.6-6.2C159.2,104.8,159.4,105.2,159.5,105.6z"/>
</g>
</svg>
