<?xml version="1.0" encoding="utf-8"?>
<!-- Generator: Adobe Illustrator 27.0.0, SVG Export Plug-In . SVG Version: 6.00 Build 0)  -->
<svg version="1.1" id="Capa_1" xmlns="http://www.w3.org/2000/svg" xmlns:xlink="http://www.w3.org/1999/xlink" x="0px" y="0px"
	 viewBox="0 0 512 512" style="enable-background:new 0 0 512 512;" xml:space="preserve">
<style type="text/css">
	.st0{fill:#FDF486;}
	.st1{fill:#F0F0FF;}
	.st2{fill:#7974E3;}
	.st3{fill:#CFCFFF;}
	.st4{fill:#FD6DC3;}
	.st5{fill:#96E1FF;}
	.st6{fill:#6B64E8;}
	.st7{fill:#FFFFFF;}
</style>
<path class="st0" d="M235.5,70v317l-58,1l-9.7-10.3l-1.3-32.9c0,0-94.2-41.6-74.3-163.1C102.5,118.8,179.6,65.9,235.5,70z"/>
<polygon class="st1" points="281.9,79.6 235.5,169.9 235.5,310.1 335.6,348.9 339,268.9 368.6,236.6 395.7,237.9 411.8,197.4 
	364.9,171.6 384.9,124.2 "/>
<polygon class="st2" points="322.6,92.2 323.7,77.9 313.5,55.2 329.9,40.1 351.6,53.4 368.3,43.9 373.4,18.4 399.1,18.4 399.1,42.2 
	418.7,51.4 437.8,35 456.5,51 441.9,69.8 451.7,88.1 477.6,95.1 475.9,115 453.4,123.2 448,140.2 461.3,158.3 446.6,175 
	423.8,163.9 404.7,173.3 384.9,124.2 323,97.4 "/>
<polygon class="st3" points="411.8,197.4 384.9,124.2 364.9,171.6 "/>
<polygon class="st4" points="488.8,240 454.8,271 338.9,272.7 368.6,233.5 "/>
<polygon class="st0" points="459.6,272.7 458.2,387 491.9,359.8 488.8,248.5 "/>
<polygon class="st5" points="338.9,278.1 338.9,348.9 349.6,367.6 370.8,370.7 384.9,363.9 395.7,377.9 386.7,390.1 392.8,399 
	458.2,387 459.6,272.7 "/>
<path class="st6" d="M327.5,353.3l-6.1,17l-16,3.7l-13.3-10.4l-12.3,16.2l8.7,19.1l-24.4,13.6v20.1l22.5,8.2l-0.3,17.4l-9.9,10.6
	l16.7,10.9l16-9.2c0,0,14.9,4.8,13.9,5.8s4.5,17.4,4.5,17.4l18.7-3.1l7.1-20.8l15.3,2.7l16.8,2.7l8.5-11.9l-9.2-20.8
	c0,0,3.7-10.6,6.5-10.6c2.7,0,17.4-5.4,17.4-5.4l-2-16.7l-17.4-3.1l-3.7-13.6l5.1-11.9l-2.4-13.3c0,0-12.1-4.4-12.9-1.6
	c-0.8,2.7-21.1,7.8-21.3,6.8c-0.2-1-9.7-19.7-9.7-19.7s-11.9-4.4-12.9-4.4S327.5,353.3,327.5,353.3z"/>
<path class="st3" d="M184.8,388l1.7,44l7.8,22.4c0,0,17.7,6.5,19.1,7.5c1.4,1,22-2,22-2V387L184.8,388z"/>
<path class="st7" d="M417.5,88.1c0,0,5.1,29.2,3.6,30.7s-15.8,15.1-15.8,15.1l-14.3,4.8l-4.3-16.9l-32.8-14.2l7.5-19.6l12.8-10.7
	c0,0,9.4-2.1,12.6-2.3c3.2-0.3,10.3-3.3,13.7,0c3.3,3.3,12.4,3.2,13.5,6.3C415,84.6,417.5,88.1,417.5,88.1z"/>
<circle class="st7" cx="337.5" cy="421.3" r="24.8"/>
<g>
	<path class="st7" d="M234.5,501c-4.4-1.9-5.9-5.2-5.7-9.9c0.3-7.4,0.1-14.9,0.1-22.5c-6-0.3-11.5-0.2-17-0.9
		c-19.6-2.4-34.3-19-34.6-38.8c-0.2-10.2-0.1-20.4,0-30.6c0-2.9-0.6-4.4-3.5-5.7c-9.6-4.6-14.6-12.4-14.8-23.2
		c-0.1-5.4-0.2-10.8,0-16.2c0.1-2.8-0.7-4.5-3.3-6.1c-38.8-24.2-62.8-58.7-71.6-103.6c-4.8-24.6-3.4-49.1,3.9-73.1
		c1.8-5.8,6.8-7.9,11.4-4.8c3.2,2.2,3.6,5.2,2.6,8.8c-4.3,14.4-6.7,29.2-5.9,44.3c2.5,51.8,26,91.2,70.4,117.9c5,3,7.4,6.3,7,12.2
		c-0.4,6.3-0.1,12.7-0.1,19.1c0.1,8.4,4.2,12.8,12.6,12.8c14,0.1,28,0,42.4,0c0-101.9,0-203.4,0-305.4c-14.2,0.7-27.8,3.5-41,8.4
		c-27.6,10.4-49.8,27.8-66.6,52.1c-0.5,0.8-1.1,1.6-1.6,2.3c-3.1,4.2-6.6,5.2-10.1,3c-4-2.6-4.7-6.7-1.8-11.2
		c8.9-13.5,19.7-25.4,32.3-35.5C161,77,189.7,62.9,228.8,60.4c0-4.6,0-9.3,0-14c0-5.4-0.1-10.8,0-16.2c0.1-5.3,2.7-8.2,7.2-8.2
		c4.5,0,7.1,2.9,7.1,8.2c0,34.9,0,69.7,0,104.6c0,1.3,0,2.5,0,3.8c0.3,0.1,0.6,0.2,0.8,0.4c0.6-1.3,1.3-2.5,1.9-3.8
		c8.3-18.9,16.6-37.8,24.9-56.8c3.2-7.4,6-8.4,13.4-5.2c10.2,4.4,20.4,8.9,30.5,13.4c4.1-7.3,4.1-7.3-0.6-13.3
		c-2.6-3.4-5.3-6.8-7.9-10.2c-2.6-3.4-2.4-6.8,0.4-10c5.3-5.9,10.7-11.8,16.1-17.7c2.9-3.1,6.3-3.4,9.9-1.3
		c4.6,2.8,9.2,5.7,13.8,8.5c4.2,2.6,12.9-1.3,13.6-6.3c0.8-5.2,1.5-10.4,2.1-15.6c0.5-5,3.4-7.3,8.2-7.5c3.3-0.2,6.7-0.1,10-0.4
		c1.4-0.1,2.7-1.1,4-1.7c4.1,0,8.3,0,12.4,0c1.8,3.5,4.1,6.9,5.4,10.6c1.4,4,2,8.3,3,12.5c1.1,4.4,10.2,7.6,13.8,4.9
		c4.3-3.2,8.6-6.6,12.9-9.9c3.5-2.7,7-2.8,10.4,0.2c5.8,5.2,11.6,10.4,17.4,15.6c3.5,3.2,3.9,6.7,1.4,10.6
		c-2.7,4.3-5.4,8.6-8.1,12.9c-3,4.8,1.1,13.2,6.8,13.9c4.9,0.6,9.8,1.2,14.7,1.9c5.7,0.8,7.4,2.6,7.8,8.3c0.5,7.5,0.9,14.9,1.2,22.4
		c0.2,4.7-2.1,7.5-6.6,8.5c-5,1.1-9.9,2.2-14.9,3.4c-5.7,1.4-8.8,9.9-5.3,14.5c3,3.9,6.1,7.8,9.1,11.7c3.4,4.5,3.4,7.3-0.3,11.4
		c-4.9,5.5-9.8,10.9-14.8,16.3c-3.8,4.1-6.7,4.5-11.4,1.7c-4.5-2.7-8.9-5.6-13.4-8.2c-1.1-0.6-2.8-1.3-3.8-0.9
		c-3.3,1.3-6.5,3-9.2,4.3c2.2,7.7,6.2,15.1,5.7,22.2c-0.5,7.2-5.5,14.1-8.5,21.1c-1.5,3.4-2.9,6.8-4.5,10.7c2.5,0,4.3,0,6,0
		c24.8,0,49.7,0,74.5,0c6.9,0,9.5,2.4,9.6,9c0.1,40,0.1,79.9-0.1,119.9c0,2.4-1.2,5.4-2.8,7.2c-9.3,10.3-18.8,20.4-28.5,30.2
		c-1.9,1.9-5.2,3.2-7.9,3.2c-14.3,0.3-28.7,0.2-43,0.2c-4.4,0-8.8,0-13.2,0c2.7,1.4,5.4,1.9,8.2,2.5c4.5,0.9,6.9,3.5,6.8,8.3
		c-0.1,6.2,0,12.4,0,18.6c0,4.6-2.4,7.1-6.7,7.9c-3.3,0.6-6.6,1.1-9.9,1.8c-6.8,1.3-8.9,6.2-5,11.7c2,2.9,4,5.7,6,8.6
		c2.5,3.7,2.1,7.1-1,10.3c-4.4,4.4-8.8,8.8-13.2,13.2c-3.2,3.2-6.7,3.3-10.4,0.9c-3.2-2.1-6.3-4.4-9.4-6.5
		c-4.2-2.9-9.8-0.6-10.7,4.4c-0.6,3.1-0.6,6.5-1.7,9.4c-1.2,3.1-3.4,5.7-5.2,8.5c-8.3,0-16.6,0-24.8,0c-1.7-2.8-3.8-5.5-5.1-8.6
		c-1-2.4-1.1-5.3-1.6-7.9c-1.3-7.3-6.3-9.3-12.4-5c-2.7,1.9-5.5,3.8-8.3,5.7c-3.4,2.3-6.7,2.1-9.6-0.7c-4.8-4.6-9.6-9.3-14.2-14.2
		c-2.8-2.9-3-6.2-0.7-9.6c1.9-2.8,3.8-5.5,5.7-8.2c4.4-6.4,2.3-11.3-5.4-12.6c-3.3-0.6-6.6-1.2-9.8-1.8c-4-0.8-6.1-3.4-6.2-7.3
		c-0.2-6.5-0.2-13-0.1-19.6c0.1-4.2,2.3-6.8,6.5-7.6c3.3-0.6,6.6-1.2,9.9-1.8c7.2-1.3,9.3-6.1,5.2-12c-1.9-2.7-3.8-5.5-5.7-8.2
		c-2.6-3.9-2.3-7.4,1.1-10.7c4.3-4.2,8.6-8.5,12.8-12.8c3.3-3.4,6.9-3.6,10.7-0.9c3.3,2.3,6.5,4.6,9.8,6.8c2.4,1.6,8.3,0.2,9.6-2.2
		c2.3-4.2,1.3-8.6-2.3-10.2c-22-9.7-43.9-19.3-65.9-28.9c-1.1-0.5-2.3-0.8-4-1.3c0,2.3,0,4.2,0,6.1c0,54.4,0,108.8,0.1,163.3
		c0,4.5-0.9,8-5,10.3C237,501,235.8,501,234.5,501z M327.3,342c0-2.9,0-4.6,0-6.3c0-19.9-0.2-39.8,0.2-59.7
		c0.1-3.8,1.4-8.4,3.8-11.2c8.7-10.1,18-19.8,27.4-29.3c2-2,5.4-3.4,8.3-3.6c6.5-0.5,13-0.1,19.6-0.2c1.3,0,3.3-0.8,3.8-1.8
		c4.3-9.2,8.3-18.5,12.4-28c-13.8-6.1-27.2-12-40.5-17.9c-9.2-4.1-10.1-6.2-6.1-15.3c5.9-13.3,11.8-26.7,17.9-40.4
		c-30.7-13.4-61-26.7-91.5-40.1c-0.6,1.1-1,1.7-1.3,2.4c-12.3,28.1-24.7,56.2-36.9,84.3c-0.7,1.7-1,3.7-1,5.5
		c-0.1,40.3,0,80.5-0.1,120.8c0,3,0.9,4.5,3.7,5.7c18.5,8,37,16.1,55.5,24.2C310.3,334.5,318.3,338,327.3,342z M396.2,386.7
		c2.1,0.1,3.3,0.3,4.6,0.3c14.8,0,29.6-0.2,44.4,0c4.6,0.1,6-1.1,5.9-5.8c-0.3-9.9-0.2-19.7,0-29.6c0.1-4.7,2.8-7.2,7.1-7.3
		c4.2-0.1,7.1,2.5,7.4,7c0.2,2.2,0.1,4.5,0.1,6.7c0,5.4,0,10.9,0,17.6c4.8-5,8.3-9.1,12.2-12.8c2.5-2.4,3.4-5,3.4-8.4
		c-0.1-30.2-0.1-60.5-0.1-90.7c0-1.5-0.1-3-0.3-5.8c-4.3,4.6-7.7,8.5-11.4,12c-2.9,2.7-4,5.6-3.9,9.6c0.3,11.1,0.2,22.3,0,33.4
		c-0.1,4.9-2.8,7.6-7.3,7.6c-4.6,0-7.2-2.5-7.3-7.6c-0.1-8.3-0.1-16.6-0.1-24.8c0-3.1,0-6.3,0-9.4c-36.6,0-72.5,0-108.5,0
		c0,20.8,0,41.3,0,61.7c8.8,1.9,9.1,2.2,10.8,11c0.4,2.2,0.9,4.4,1.3,6.5c1.3,6.7,6.2,8.6,11.9,4.6c2.6-1.8,5.3-3.6,7.9-5.4
		c3.8-2.7,7.4-2.6,10.8,0.7c4.6,4.5,9.1,9,13.5,13.5c3,3,3.1,6.4,0.9,10C398.6,383.1,397.7,384.5,396.2,386.7z M401.2,148.4
		c2,5.1,4,10.1,6.1,15.5c3.5-1.7,6.7-2.9,9.4-4.8c4.7-3.2,9-2.9,13.6,0.3c4,2.8,8.3,5.2,12.7,7.9c2.8-3.1,5.3-5.9,7.9-8.8
		c-1.8-2.4-3.2-4.8-5.1-6.6c-7-6.9-7.6-13.5-4.1-23.3c5.3-14.8,5.2-13,19.7-16.5c6.9-1.7,8.7-4.6,6.3-11.4c-0.3-1-1.8-2.1-2.9-2.3
		c-4.5-0.8-9.1-1.5-13.7-1.9c-4.4-0.4-6.8-2.7-8.5-6.6c-1.8-4.4-3.8-8.7-6.1-12.9c-2.1-3.6-2.2-6.7,0.1-10.2c3-4.6,5.8-9.4,9-14.4
		c-3-2.7-5.8-5.2-8.8-7.9c-4.8,3.6-9.3,7.1-13.8,10.6c-3.1,2.4-6.2,2.6-9.8,1c-4.3-1.9-8.9-3.5-13.4-4.7c-4.3-1.2-6.9-3.7-7.8-8
		c-0.9-4.3-1.9-8.7-3.1-13c-0.3-1.1-1.6-2.4-2.6-2.6c-8.1-1.6-10.4,0.2-11.1,8.3c-0.1,1.1-0.3,2.2-0.3,3.3c0,8.2-3.5,13.6-11.9,15.2
		c-0.9,0.2-1.9,0.6-2.6,1.2c-8.3,7-15.6,4.4-23.5-1.2c-8.1-5.8-5.8-5.5-12.8,1.6c-2.1,2.1-1.9,3.5-0.1,5.6c2.6,3,4.8,6.3,7.4,9.3
		c3.3,3.8,3.9,7.7,1.5,12.3c-1.5,2.8-2.4,5.8-3.7,9.1c5.4,2.4,10.4,4.5,15.3,6.7c12-24.1,26.9-34.7,44.9-32.4
		c20.7,2.6,34.6,15.2,38.7,35.1C431.8,119.7,422.8,135.7,401.2,148.4z M292.4,469.4c3.5-2.4,6.5-4.3,9.4-6.5
		c3.7-2.8,7.4-3.1,11.5-0.8c2.9,1.6,6,2.9,9.2,3.8c4.4,1.2,6.7,4,7.4,8.3c0.4,2.2,0.9,4.4,1.1,6.6c0.4,3,0.6,5.6,4.8,5.5
		c4.1-0.1,4.1-2.8,4.3-5.5c0.5-8.6,4.2-13.3,12.9-16.8c8.8-3.6,15.2-3.3,21.9,2.8c1.9,1.7,3.7,3.1,6.5,0.5c3-2.9,1.1-4.6-0.4-6.8
		c-1.5-2.1-2.9-4.2-4.4-6.3c-2.3-3.1-2.4-6.3-0.7-9.8c1.8-3.5,3.1-7.3,4.5-11c1.3-3.6,3.7-5.8,7.6-6.3c3.1-0.4,6.3-0.9,9.3-1.9
		c1.2-0.4,2.5-2.1,2.8-3.3c1.1-6.2-4.3-5-7.2-5.3c-7.2-0.8-10.8-4.1-14.1-11c-4.8-9.8-4.3-17.2,2.8-24.9c0.8-0.8,0.5-3.4-0.2-4.7
		c-2-3.6-4.6-2.3-7-0.2c-6.5,5.9-13.4,8.2-21.3,2.3c-0.7-0.6-1.7-0.8-2.7-1c-6.4-1.2-9.6-5.1-10.1-11.4c-0.1-1.3-0.3-2.5-0.5-3.8
		c-1.3-6.3-1.4-6.4-8.6-5.1c-1.5,9-2.3,17-13.8,21.8c-11.7,4.9-17.8-0.7-25.6-6.1c-1.8,1.9-3.4,3.6-4.9,5.2c0.8,1.2,1.3,2,1.8,2.8
		c8.2,12.1,8.8,10.1,3.2,23.9c-3.1,7.5-7,11.2-14.6,11.7c-1,0.1-1.9,0.2-2.8,0.3c-2.7,0.4-4.2,1.7-4,4.7c0.2,2.8,1.3,4,4,4.2
		c2.2,0.1,4.4,0.8,6.6,1.1c5.1,0.7,8.4,3.2,9.7,8.4c0.8,2.9,2,5.7,3.5,8.3c2.4,4.3,2.1,8.1-0.9,11.9c-2.2,2.9-4.1,6-6.5,9.4
		C288.9,466.1,290.5,467.6,292.4,469.4z M228.5,395.4c-12.6,0-24.6,0-36.8,0c0,11.9-0.3,23.5,0.1,35c0.2,6.7,3.5,12.4,8.6,17
		c8.2,7.3,18,6.6,28.1,6.1C228.5,434,228.5,414.8,228.5,395.4z M395.2,133.9c11.9-3.7,20-16,18.5-27.9c-1.8-13.9-12.5-24-26.1-24.5
		c-13.3-0.5-25.3,8.5-27.9,20.7c-0.6,2.8,0.1,4.3,2.9,5.4c4.7,1.8,9.2,4.4,14,5.9c9.1,2.9,15.6,8.1,17.4,18
		C394.2,132.3,394.9,133.1,395.2,133.9z M353.3,262.7c1.4,0.3,2,0.5,2.5,0.5c32.3,0,64.6,0,96.9,0c1.2,0,2.7-0.3,3.5-1
		c4.6-4.7,9.1-9.6,14.1-14.9c-1.6-0.3-2.4-0.6-3.1-0.6c-32,0-63.9,0-95.9,0c-1.3,0-3.1,0.3-3.9,1.2
		C362.7,252.5,358.3,257.4,353.3,262.7z M399.1,184.3c-5.5-14.1-10.6-27-15.9-40.8c-4.4,9.9-8.3,18.9-12.4,28.2
		C380.1,175.9,389,179.8,399.1,184.3z"/>
	<path class="st7" d="M39.6,223.1c-5.6,0-11.1,0.1-16.7,0c-4.9-0.1-7.6-2.7-7.6-7.2c0-4.4,2.8-7.1,7.7-7.2c11.1-0.1,22.2-0.1,33.3,0
		c4.9,0,7.7,2.9,7.6,7.2c0,4.4-2.8,7-7.7,7.1C50.7,223.2,45.2,223.1,39.6,223.1z"/>
	<path class="st7" d="M85.7,375.7c-1.8-1.6-4.5-2.9-5.4-5c-0.8-1.9-0.7-5.5,0.6-6.9c8.3-8.9,17-17.5,25.8-26c2.8-2.7,6.2-2.1,9,0.4
		c2.9,2.7,3.8,6.4,1,9.3c-8.4,8.9-17.1,17.4-25.8,26C89.8,374.5,88,374.7,85.7,375.7z"/>
	<path class="st7" d="M84.1,55.2c2.3,1.3,4.1,1.9,5.2,3c8.2,8,16.3,16,24.3,24.2c3.2,3.3,3,7.6,0,10.6c-2.8,2.8-6.8,2.7-10.1-0.6
		c-8-7.9-16-15.9-23.9-23.9c-2.3-2.4-3.6-5.3-1.5-8.1C79.5,58.3,82,56.9,84.1,55.2z"/>
	<path class="st7" d="M368.6,421.5c0,18.3-14.9,33.1-33.1,32.9c-18.1-0.2-33.5-15.7-33.3-33.7c0.2-18.2,15.1-32.7,33.4-32.7
		C354.1,388,368.6,402.8,368.6,421.5z M317.3,420.8c0,10.3,8.1,18.5,18.4,18.6c10.1,0,18.2-8.1,18.2-18.2
		c-0.1-10-8.2-18.2-18.2-18.4C325.6,402.5,317.4,410.6,317.3,420.8z"/>
</g>
</svg>
