<?xml version="1.0" encoding="utf-8"?>
<!-- Generator: Adobe Illustrator 27.0.0, SVG Export Plug-In . SVG Version: 6.00 Build 0)  -->
<svg version="1.1" id="Layer_1" xmlns="http://www.w3.org/2000/svg" xmlns:xlink="http://www.w3.org/1999/xlink" x="0px" y="0px"
	 viewBox="0 0 512 512" style="enable-background:new 0 0 512 512;" xml:space="preserve">
<style type="text/css">
	.st0{fill:#F4A422;}
	.st1{fill:#EFCCBF;}
	.st2{fill:#F4C167;}
	.st3{fill:#FFFFFF;}
</style>
<g>
	<polygon class="st0" points="340.8,374.5 356.7,424.5 319.5,435.4 301.6,394.5 	"/>
	<polygon class="st1" points="337.3,205.3 390.4,344 370,362.4 309.1,387.6 247,378 218.8,284.7 227.1,246.8 	"/>
	<polygon class="st0" points="290.9,19.2 319.5,106.1 310.8,156.9 275,198.4 278.6,223 236.7,237.3 227.1,212.7 169.9,205.3 
		127.5,168.8 96.3,87.7 284.8,16.1 	"/>
	<polygon class="st2" points="417.5,81.5 440.5,101.7 417.5,123.9 394,100.9 	"/>
	<polygon class="st2" points="449.3,235.2 474.2,260.6 447.1,287.3 426.7,256 	"/>
	<polygon class="st2" points="69.3,235.2 96.3,260.6 71.3,287.3 42.2,260.6 	"/>
	<g>
		<path class="st3" d="M285.2,10.2c10.5,3.6,16.9,11,18.8,22.2c1.7-0.2,2.9-0.3,4.1-0.5c17.2-2.6,33.7,5.2,42.4,20
			c9,15.2,8.2,33.5-2.4,47.2c-7.1,9.2-14.7,18.1-21.8,27.3c-1.7,2.2-3,4.9-3.5,7.6c-3,15.9-9.5,30-19.7,42.5
			c-5.5,6.7-10.9,13.4-16.8,19.6c-3.4,3.6-4,6.8-1.8,10.9c0.7,1.4,1.2,2.9,2,4.9c3.3-1.4,6.5-2.6,9.7-4c8.2-3.6,16.2-7.6,24.5-10.8
			c9.4-3.6,25.1-1.2,30.9,14.2c5.6,14.7,11.1,29.6,16.6,44.3c9.3,24.9,18.6,49.9,27.9,74.8c5.3,14.3,0.8,25.8-12.8,32.7
			c-9.4,4.8-18.8,9.4-28.2,14.1c-1.5,0.8-3,1.7-4.9,2.7c4.6,10.9,9,21.6,13.7,32.3c0.4,1,2.5,1.7,3.9,1.7c7,0.2,14,0,21.1,0.1
			c12.6,0.2,21.1,6.1,25.6,17.8c2.1,5.5,4.1,11,6.4,17.1c-43.9,17.2-87.6,34.3-132.4,51.9c-3.2-9.5-7-18.6-9.1-28.1
			c-1.5-6.6,1.7-12.8,6.7-17.7c5.7-5.6,11.6-11,17.2-16.7c1.1-1.1,1.8-3.7,1.3-5.2c-3.9-12.6-8-25.2-12.4-37.7
			c-0.5-1.4-2.4-3-3.8-3.2c-11.7-1.6-23.4-3.1-35.1-4.3c-1.7-0.2-3.7,0.7-5.4,1.4c-73,30.2-146.1,60.5-219.1,90.8
			c-1.6,0.7-3.3,1.3-5.3,2c-2.1-4.5-4.1-9-6.1-13.4c0.4,0,0.7,0.1,1.1,0.1c0.6-2.3,1.8-4.7,1.8-7c0.1-30.3,0.2-60.7,0-91
			c0-4.6-1.5-9.3-2.4-14.5c8.8-3.6,18.1-7.4,27.3-11.1c53.9-21.9,107.8-43.8,161.7-65.6c3-1.2,4.6-2.6,5.1-6
			c0.9-6.1,2.5-12.2,3.6-18.3c1.5-8.3,4.3-15.7,12.1-20.4c-1.4-3.6-2.4-7-4.1-9.9c-0.7-1.2-2.9-2.1-4.6-2.3
			c-10.8-1.3-21.6-2.1-32.3-3.8c-12.9-2-24.9-7.1-35.7-14.3c-4.7-3.2-9.7-3.6-14.9-4.3c-8.7-1.1-17.4-1.9-26.2-2.9
			c-20.8-2.2-36.2-16.1-40.4-36.4c-3.8-18.3,5.2-36.8,22.9-46.9c0.4-0.2,0.8-0.6,1.4-1.1c-1.3-3.8-2.8-7.6-3.9-11.6
			c-3.8-13.8,2-25,15.6-30c22.5-8.2,45-16.2,67.5-24.3c34-12.2,68.1-24.5,102.1-36.7c0.3-0.1,0.5-0.4,0.7-0.6
			C278.8,10.2,282,10.2,285.2,10.2z M270.4,216.6c-1.9-5.1-3.5-9.8-5.4-14.3c-1.4-3.2-1-5.6,1.4-8.2c6.9-7.7,13.6-15.6,20.4-23.5
			c21.7-25.5,27.6-54.3,17.7-86.2c-5.1-16.6-10.9-33-16.4-49.4c-2.4-7.2-5.1-8.5-12.2-6C221.5,48.5,167.2,68.1,113,87.6
			c-6.9,2.5-8.5,5.7-5.8,12.5c7,18,13.6,36.1,21.3,53.8c11.7,26.8,32.5,43.5,61.1,49.4c13.7,2.8,27.8,3.4,41.7,4.8
			c2.9,0.3,4.3,1.4,5.2,3.9c1.6,4.3,3.4,8.6,5.1,12.9c0.8,2.1,1.9,3,4.4,2C253.8,223.4,261.8,220.2,270.4,216.6z M342.5,231.2
			c-1.8-4.8-3.5-9.3-5.2-13.7c-2.8-7.2-6.3-8.8-13.3-5.8c-28.6,12.2-57.2,24.4-85.6,36.9c-2.6,1.2-5.3,4.4-6,7.2
			c-2.2,8.6-3.6,17.5-5.2,26.3c-0.2,1.2,0,2.5,0.4,3.7c9.2,27.7,18.4,55.4,27.7,83c0.5,1.5,2.6,3.2,4.2,3.4
			c13.3,1.8,26.6,3.4,39.9,4.8c5.2,0.5,11.2,2.1,15.5,0.1c21.3-9.7,42.2-20.4,63.2-30.8c3.3-1.6,4.7-4.5,3.8-7.9
			c-1-3.8-2.7-7.4-4.2-11.3c-12.7,4.2-24.9,8.3-37.4,12.5c-1.7-5.4-3.2-10.2-4.8-15.3c12.4-4.1,24.3-8,36.5-12
			c-3.3-8.7-6.3-16.7-9.4-25c-12.8,4.2-25.3,8.4-38.1,12.6c-1.7-5.2-3.2-10-4.9-15.3c12.5-4.3,24.8-8.5,37.3-12.8
			c-3.3-8.6-6.3-16.7-9.4-25c-13.4,4.3-26,8.4-39,12.6c-1.7-5.5-3.2-10.3-4.8-15.4C316.9,239.6,329.5,235.4,342.5,231.2z
			 M127.5,183.8c-13.5-16.5-19.2-35.8-27.2-53.8c-9.8,4.4-16,15.1-15.2,25.7c0.9,12.2,8.6,22.5,20,25.1
			C112,182.3,119.2,182.7,127.5,183.8z M310.8,48.8c5.2,17.5,10.4,34.8,15.6,52.2c3.1-3.9,6.5-8,9.7-12.4c6.2-8.6,6.3-19.4,0.4-28.7
			C331,51.1,321.7,47,310.8,48.8z M334.7,387.6c-8.4,3.4-16.3,6.5-24.6,9.9c2.9,8.3,6,17.5,9.3,27.1c9.4-3.2,18.2-6.2,27.3-9.3
			C342.5,405.6,338.6,396.7,334.7,387.6z"/>
		<path class="st3" d="M465,94.2c0,5.1,0,10,0,15.3c-12.3,0.5-22.7,5-30.6,14.5c-8,9.5-9.5,20.9-9.1,33.1c-5.3,0-10.2,0-15.5,0
			c0.6-27.4-11.3-44.4-39.8-47.9c0-4.9,0-10,0-15.3c12.2-0.7,22.7-5.1,30.6-14.6c7.9-9.5,9.5-20.9,9-33.1c5.3,0,10.2,0,15.5,0
			C424.5,73.6,436.4,90.7,465,94.2z M431.1,101.7c-3.8-3.9-9.6-9.9-13.6-14c-4.1,4.2-10,10.2-13.7,14c3.9,4,9.8,9.9,13.8,13.9
			C421.6,111.4,427.4,105.5,431.1,101.7z"/>
		<path class="st3" d="M496.8,252.8c0,5.4,0,10.3,0,15.4c-28.3,3.4-40.6,20.1-39.7,47.8c-5.3,0-10.2,0-15.5,0
			c0.8-27.3-11.2-44.3-39.7-47.8c0-5,0-10,0-15.3c12.2-0.7,22.7-5.1,30.5-14.6c7.9-9.5,9.6-20.9,8.9-33c5.4,0,10.3,0,16,0
			c-0.7,11.9,0.8,23.3,8.7,32.8C473.9,247.6,484.2,252.2,496.8,252.8z M449.3,246.8c-4.2,4.2-10,10.2-13.7,14c4,4,9.8,9.9,13.7,13.9
			c4-4.1,9.9-10,13.8-14C459.1,256.6,453.3,250.8,449.3,246.8z"/>
		<path class="st3" d="M20.2,252.8c12.4-0.6,22.8-5.2,30.6-14.7c7.8-9.4,9.4-20.7,8.8-32.8c5.3,0,10.1,0,15.6,0
			c-0.7,27.1,11.1,44.2,39.7,47.8c0,4.7,0,9.7,0,15c-27.9,3.3-40.4,19.9-39.6,47.8c-5.1,0-9.9,0-15.4,0c0.7-27-11.1-44.2-39.7-47.7
			C20.2,263.4,20.2,258.4,20.2,252.8z M67.8,274.6c4.1-4.2,9.8-10,13.5-13.8c-3.8-3.9-9.7-9.8-13.7-13.9c-4,4-9.9,9.9-13.8,13.8
			C57.8,264.6,63.6,270.4,67.8,274.6z"/>
		<path class="st3" d="M252,57.7c3.6-2.3,8-5.2,13.5-8.7c4,8.6,8.2,16.4,11.4,24.6c7.7,19.9,10.8,40.3,4.7,61.2
			c-3.2,10.9-8.8,20.3-17.3,28.4c-3.8-4.1-7.3-7.9-11.1-12c-0.1,0.3-0.1-0.2,0.2-0.5c15.2-16.8,17.2-36.5,11.6-57.3
			C261.7,81.5,256.6,70.1,252,57.7z"/>
	</g>
</g>
</svg>
