<?xml version="1.0" encoding="utf-8"?>
<!-- Generator: Adobe Illustrator 27.0.0, SVG Export Plug-In . SVG Version: 6.00 Build 0)  -->
<svg version="1.1" id="Layer_1" xmlns="http://www.w3.org/2000/svg" xmlns:xlink="http://www.w3.org/1999/xlink" x="0px" y="0px"
	 viewBox="0 0 150 150" style="enable-background:new 0 0 150 150;" xml:space="preserve">
<style type="text/css">
	.st0{fill:#191919;}
</style>
<g>
	<path class="st0" d="M0,26.1c0.4-1.3,0.7-2.6,1.1-3.9C3.4,16,9.4,11.8,15.9,11.7c7.5-0.1,15,0,22.6,0c31.6,0,63.1,0,94.6,0
		c8,0,14.5,4.9,16.4,12.3c2.6,10.1-4.7,20-15.1,20.5c-2.5,0.1-5.1,0-7.7,0c0,1.6,0,3.1,0,4.7c2.4,0,4.8,0,7.1,0
		c7.5,0.1,13.8,5.2,15.7,12.4c2.6,10.1-4.9,20-15.2,20.4c-2.5,0.1-5,0-7.7,0c0,0.6,0,1.2,0,1.8c0,12.3,0,24.7,0,37.1
		c0,1.4-0.4,2.5-1.4,3.5c-4.2,4.2-8.5,8.4-12.6,12.6c-0.9,0.9-1.9,1.4-3.2,1.4c-24.4,0-48.8,0-73.2,0c-2.5,0-3.2-0.7-3.2-3.2
		c0-17,0-34.1,0-51.1c0-0.6,0-1.2,0-1.9c-0.6,0-1.1,0-1.6,0c-4.6,0-9.2,0-13.8,0C8.3,82,2.1,76.9,0.2,68c0-0.1-0.1-0.2-0.2-0.4
		c0-1.4,0-2.7,0-4.1c0.1-0.2,0.2-0.3,0.2-0.5c1.7-8.5,8.1-13.8,16.7-13.8c3.9,0,7.8,0,11.7,0c1.4,0,2.7,0,4.1,0c0-1.7,0-3.1,0-4.7
		c-0.6,0-1.2,0-1.7,0c-4.9,0-9.8,0-14.6,0C9.1,44.4,3,39.9,0.8,33.1c-0.3-1-0.5-2-0.8-2.9C0,28.8,0,27.4,0,26.1z M37.6,133.5
		c23.5,0,46.8,0,70.2,0c0.1-0.2,0.1-0.3,0.1-0.4c0-3.5,0-6.9,0-10.4c0-2.5,0.7-3.2,3.2-3.2c3.2,0,6.3,0,9.5,0c0.4,0,0.8-0.1,1.2-0.1
		c0-25,0-49.9,0-74.8c-28.1,0-56.2,0-84.2,0C37.6,74.3,37.6,103.8,37.6,133.5z M28.1,39.8c0.6,0,1,0,1.4,0c34.5,0,69,0,103.6,0
		c1.2,0,2.4-0.1,3.6-0.5c5.6-1.5,9.3-7,8.6-12.5c-0.8-6.1-5.6-10.4-11.8-10.4c-34.8,0-69.5,0-104.3,0c-0.3,0-0.6,0-1,0.1
		C34.4,24.3,34.4,32,28.1,39.8z M126.7,77.3c2.7,0,5.2,0.1,7.6,0c5.6-0.3,10.1-4.5,11-10.2c0.8-5.2-2.5-10.7-7.6-12.5
		c-3.6-1.3-7.3-0.5-11-0.7C126.7,61.8,126.7,69.5,126.7,77.3z M28.1,65.7c0-6.5-5.2-11.8-11.7-11.8c-6.4,0-11.7,5.2-11.7,11.6
		C4.6,72,9.9,77.3,16.3,77.3C22.8,77.4,28.1,72.1,28.1,65.7z M28.1,28.2c0-6.5-5.2-11.8-11.6-11.8S4.8,21.5,4.7,27.9
		c-0.1,6.5,5.1,11.8,11.6,11.9C22.7,39.9,28.1,34.6,28.1,28.2z M32.8,77.3c0-3.1,0-6.1,0-9.1c-0.7,3.4-2.3,6.4-4.8,9.1
		C29.7,77.3,31.2,77.3,32.8,77.3z M118,124.3c-1.7,0-3.6,0-5.4,0c0,1.9,0,3.8,0,5.5C114.4,128,116.3,126.1,118,124.3z M32.7,63
		c0-3,0-6,0-9c-1.6,0-3,0-4.7,0C30.5,56.7,32,59.6,32.7,63z"/>
	<path class="st0" d="M76.1,86.1c3.4-5.3,6.7-10.4,10-15.5c0.3-0.5,0.6-1,1-1.5c1.2-1.6,2.8-1.6,4,0c0.2,0.3,0.4,0.6,0.6,0.8
		c6.6,10.3,13.2,20.6,19.9,30.9c0.7,1.1,1.4,2.1,0.6,3.4c-0.7,1.2-1.9,1.2-3.1,1.2c-18.1,0-36.1,0-54.2,0c-1.2,0-2.4-0.1-3-1.3
		c-0.6-1.2,0-2.2,0.6-3.1c4.8-7.3,9.5-14.7,14.3-22c1.5-2.3,3.3-2.3,4.8,0C73,81.3,74.4,83.6,76.1,86.1z M89,74.6
		c-5.6,8.8-11.2,17.4-16.8,26c11.3,0,22.3,0,33.5,0C100.2,91.9,94.6,83.3,89,74.6z M69.1,84c-3.7,5.7-7.2,11.1-10.9,16.8
		c2.8,0,5.2,0,7.6,0c0.4,0,1-0.3,1.3-0.7c2-3,3.9-5.9,5.8-9c0.2-0.3,0.2-0.9,0-1.3C71.7,87.9,70.4,86.1,69.1,84z"/>
	<path class="st0" d="M51.5,65.6c0-4,3.1-7,7-7c3.8,0,7,3.1,7,7c0,3.8-3.2,7.1-7.1,7.1C54.7,72.6,51.5,69.4,51.5,65.6z M58.5,63.2
		c-1.3,0-2.3,1.1-2.2,2.4c0,1.3,1.1,2.3,2.4,2.3c1.2,0,2.3-1.2,2.3-2.4C60.8,64.2,59.8,63.2,58.5,63.2z"/>
	<path class="st0" d="M23.4,65.6c0,3.9-3.2,7.1-7.1,7.1c-3.8,0-7-3.2-7-7c0-3.8,3.1-7,6.9-7.1C20.2,58.5,23.4,61.7,23.4,65.6z
		 M18.7,65.6c0-1.3-1.1-2.3-2.4-2.3S14,64.4,14,65.7s1.1,2.3,2.4,2.3C17.7,67.9,18.8,66.8,18.7,65.6z"/>
	<path class="st0" d="M16.4,35.1c-3.9,0-7.1-3.2-7.1-7.1c0-3.8,3.2-7,7-7c3.9,0,7.1,3.2,7.1,7.1S20.3,35.1,16.4,35.1z M16.4,25.8
		c-1.3,0-2.3,1.1-2.3,2.4s1.1,2.3,2.4,2.3s2.3-1.1,2.3-2.4C18.7,26.8,17.6,25.8,16.4,25.8z"/>
</g>
</svg>
