<?xml version="1.0" encoding="utf-8"?>
<!-- Generator: Adobe Illustrator 27.0.0, SVG Export Plug-In . SVG Version: 6.00 Build 0)  -->
<svg version="1.1" id="Layer_1" xmlns="http://www.w3.org/2000/svg" xmlns:xlink="http://www.w3.org/1999/xlink" x="0px" y="0px"
	 viewBox="0 0 150 150" style="enable-background:new 0 0 150 150;" xml:space="preserve">
<style type="text/css">
	.st0{fill:#191919;}
</style>
<g>
	<path class="st0" d="M103.9,117.4c0,4.1,0,8.1,0,12.2c2.4,0,4.8,0,7.2,0c3.9,0.1,6.9,2.5,7.7,6.2c1,4.5-2.4,9.1-7.1,9.3
		c-1.4,0.1-2.8,0-4.2,0c-22.9,0-45.8,0-68.7,0c-6,0-9.8-5.9-7.2-11.1c1.5-2.9,3.9-4.3,7.1-4.3c2.6,0,5.3,0,8,0c0-4.1,0-8.1,0-12.2
		c-0.7,0-1.2,0-1.8,0c-11.4,0-22.8,0-34.1,0c-5.6,0-9.7-3.4-10.7-8.7C0,107.9,0,107.1,0,106.2c0-30,0-60.1,0-90.2
		C0,9.3,4.3,4.9,11.1,4.9c42.6,0,85.2,0,127.8,0c6.8,0,11.1,4.4,11.1,11.3c0,23.7,0,47.3,0,71c0,6.3-0.1,12.5,0,18.8
		c0.2,7.1-5.1,11.7-11.6,11.6c-10.9-0.2-21.8-0.1-32.7-0.1C105.1,117.4,104.5,117.4,103.9,117.4z M146.5,89.2c0-0.6,0-1.1,0-1.5
		c0-23.9,0-47.8,0-71.7c0-4.9-2.9-7.7-7.8-7.7c-42.5,0-84.9,0-127.3,0c-5.2,0-8,2.8-8,8c0,23.8,0,47.5,0,71.3c0,0.5,0,1.1,0.1,1.7
		C51.2,89.2,98.7,89.2,146.5,89.2z M3.4,92.7c0,0.6,0,1.1,0,1.5c0,3.9,0,7.8,0,11.6c0,5.3,2.8,8.2,8.2,8.2c13.1,0,26.1,0,39.2,0
		c29.1,0,58.2,0,87.4,0c0.4,0,0.9,0,1.3,0c4.1-0.2,7-3.1,7.1-7.2c0.1-4.4,0-8.8,0-13.3c0-0.3,0-0.6-0.1-0.9
		C98.7,92.7,51.1,92.7,3.4,92.7z M75,133.1c-8,0-16,0-24,0c-4.1,0-8.2,0-12.4,0c-2.8,0.1-4.6,2.1-4.3,4.8c0.2,2.4,2.1,3.9,4.9,3.9
		c23.8,0,47.6,0,71.4,0c0.3,0,0.7,0,1,0c2.2-0.3,3.8-1.9,3.9-4c0.2-1.9-1.2-3.9-3.1-4.4c-0.8-0.2-1.7-0.2-2.5-0.2
		C98.4,133.1,86.7,133.1,75,133.1z M50.5,129.6c16.7,0,33.2,0,49.8,0c0-4.1,0-8,0-12c-16.7,0-33.2,0-49.8,0
		C50.5,121.6,50.5,125.5,50.5,129.6z"/>
	<path class="st0" d="M44.8,45.5c0,3,0,6,0,9c-0.1,5.4-4.4,9.5-10,9.6c-5.5,0-10-4.2-10-9.5c0-6.2,0-12.3,0-18.5
		c0-1.5,0.6-2.4,1.7-2.2c1.3,0.1,1.6,1,1.6,2.2c0,6,0,12,0,18c0,2.8,1.3,4.8,3.9,6c2.5,1.1,5.6,0.6,7.5-1.3c1.4-1.3,1.9-3,1.9-4.8
		c0-5.5,0-11,0-16.5c0-0.4,0-0.8,0-1.2c0-1.7,0.6-2.5,1.7-2.4c1.4,0.1,1.7,1.1,1.7,2.4C44.8,39.2,44.8,42.3,44.8,45.5z"/>
	<path class="st0" d="M114.3,45.5c0,2.9,0,5.9,0,8.8c-0.1,5.5-4.4,9.7-10,9.7s-10-4.2-10-9.7c0-6.2,0-12.3,0-18.5c0-1,0.3-1.9,1.4-2
		c0.6,0,1.4,0.3,1.7,0.8c0.3,0.4,0.3,1.2,0.3,1.9c0,5.8,0,11.6,0,17.4c0,4.8,4.4,7.9,9,6.3c2.7-1,4.3-3.2,4.3-6c0-5.8,0-11.6,0-17.4
		c0-0.4,0-0.8,0-1.2c0-1.1,0.6-1.7,1.6-1.8c1.1,0,1.7,0.6,1.7,1.8C114.3,38.8,114.3,42.2,114.3,45.5L114.3,45.5z"/>
	<path class="st0" d="M58.5,45.1c1.8-3.3,3.4-6.4,5.1-9.4c0.2-0.4,0.5-0.9,0.7-1.3c0.6-0.9,1.4-1.2,2.3-0.7s1.1,1.3,0.7,2.3
		c-0.7,1.3-1.4,2.6-2.1,3.9c-1.4,2.5-2.7,5.1-4.1,7.6c-0.5,0.8-0.5,1.5,0,2.3c2,3.6,4,7.3,5.9,11c0.6,1.1,0.8,2.1-0.4,2.8
		c-0.9,0.6-1.9,0.2-2.6-1.2c-1.8-3.3-3.6-6.6-5.5-10.2c-0.9,1.7-1.7,3.2-2.5,4.6c-1.1,2-2.1,3.9-3.2,5.9c-0.5,0.9-1.3,1.4-2.3,0.9
		c-1.1-0.6-1.2-1.5-0.6-2.5c2-3.8,4.1-7.6,6.1-11.4c0.4-0.8,0.4-1.4,0-2.2c-2.1-3.8-4.1-7.6-6.2-11.4c-0.5-1-0.5-1.9,0.5-2.5
		s1.9-0.2,2.5,0.8c0.2,0.3,0.4,0.7,0.6,1C55,38.7,56.6,41.8,58.5,45.1z"/>
	<path class="st0" d="M90.7,27c-0.2,0.7-0.3,1.1-0.5,1.5C85,42.4,79.8,56.3,74.7,70.2c-0.2,0.6-0.7,1.3-1.2,1.6
		c-0.5,0.2-1.5,0-1.7-0.3c-0.3-0.6-0.5-1.5-0.3-2.2c1.2-3.7,2.7-7.3,4-10.9c3.8-10.3,7.6-20.6,11.4-30.9c0.2-0.5,0.3-1.1,0.6-1.3
		c0.6-0.4,1.3-0.7,1.9-0.6C89.9,25.8,90.3,26.6,90.7,27z"/>
	<path class="st0" d="M125.2,48.7c0,4.8,0,9.5,0,14.3c0,0.5,0.1,1.1-0.1,1.4c-0.4,0.6-1,1.3-1.5,1.3c-0.6,0-1.2-0.7-1.7-1.3
		c-0.2-0.3-0.1-0.9-0.1-1.3c0-9.6,0-19.1,0-28.7c0-0.4-0.1-1,0.1-1.3c0.5-0.5,1.1-1.2,1.7-1.3c0.5,0,1.2,0.7,1.5,1.3
		c0.2,0.3,0.1,1,0.1,1.5C125.2,39.2,125.2,43.9,125.2,48.7z"/>
	<path class="st0" d="M96.9,103.4c0,3.1-2.6,5.6-5.7,5.6c-3.1-0.1-5.6-2.6-5.5-5.7s2.6-5.6,5.7-5.5C94.5,97.8,97,100.4,96.9,103.4z
		 M91.3,101.2c-1.2,0-2.2,0.9-2.1,2.2c0,1.2,0.9,2.2,2.2,2.1c1.2,0,2.2-0.9,2.2-2.2C93.5,102.1,92.5,101.2,91.3,101.2z"/>
	<path class="st0" d="M53,103.3c0-3.1,2.5-5.6,5.6-5.6s5.5,2.6,5.5,5.6c0,3.1-2.5,5.6-5.6,5.6C55.5,108.9,53,106.4,53,103.3z
		 M58.6,101.2c-1.2,0-2.2,0.9-2.2,2.1s0.9,2.2,2.1,2.2c1.3,0.1,2.3-0.9,2.3-2.2C60.8,102.2,59.8,101.2,58.6,101.2z"/>
	<path class="st0" d="M80.6,103.3c0,3.1-2.5,5.6-5.6,5.6s-5.6-2.5-5.6-5.6s2.5-5.6,5.5-5.6C78,97.7,80.5,100.2,80.6,103.3z
		 M77.2,103.4c0-1.2-0.9-2.2-2.1-2.2s-2.2,0.9-2.2,2.1c-0.1,1.2,0.9,2.3,2.2,2.3C76.2,105.5,77.2,104.6,77.2,103.4z"/>
</g>
</svg>
